<svg version="1.2" xmlns="http://www.w3.org/2000/svg" viewBox="0 0 100 1235" width="100" height="1235">
	<title>Line_Vertical_1-svg</title>
	<style>
		.s0 { fill: #9dadf2 } 
		.s1 { fill: #7ddacf } 
		.s2 { fill: #478bf9 } 
	</style>
	<g id="Layer" style="opacity: .2">
		<path id="Layer" fill-rule="evenodd" class="s0" d="m49.7 1334.2c-12.7 0-25.4-4.8-35-14.5-19.4-19.3-19.4-50.8 0-70.1 9.3-9.4 21.8-14.5 35-14.5 13.3 0 25.7 5.1 35.1 14.5 19.3 19.3 19.3 50.8 0 70.1-9.7 9.7-22.4 14.5-35.1 14.5zm-32.4-17.1c17.9 17.9 47 17.9 64.9 0 17.9-17.9 17.9-47 0-64.9-8.7-8.7-20.2-13.4-32.5-13.4-12.2 0-23.8 4.8-32.4 13.4-17.9 17.9-17.9 47 0 64.9z"/>
		<path id="Layer" class="s0" d="m49.1 1303.2c0.2 0.4 0.6 0.7 1 0.7q0.2 0 0.4-0.1c3.5-1.5 6.7-3.7 9.2-6.6 0.5-0.4 0.4-1.1 0-1.5-0.5-0.4-1.2-0.4-1.6 0.1-2.3 2.5-5.2 4.6-8.4 6-0.6 0.2-0.9 0.9-0.6 1.4z"/>
		<path id="Layer" fill-rule="evenodd" class="s0" d="m69.3 1268.6v13.2c0 12.2-7.7 23.3-19.2 27.5q-0.2 0-0.4 0-0.2 0-0.4 0c-11.4-4.2-19.2-15.3-19.2-27.5v-13.2c0-0.5 0.3-0.9 0.7-1.1l18.5-7.4q0.4-0.1 0.8 0l18.5 7.4c0.4 0.2 0.7 0.6 0.7 1.1zm-2.2 0.7l-17.4-6.9-17.3 6.9v12.5c0 11.1 7 21.3 17.3 25.2 10.4-3.9 17.4-14.1 17.4-25.2z"/>
		<path id="Layer" class="s0" d="m42 1269.3q-0.4-0.2-0.8 0l-4.4 1.7c-0.5 0.2-0.7 0.6-0.7 1.1v4.7c0 0.6 0.5 1.1 1.1 1.1 0.6 0 1.1-0.5 1.1-1.1v-4l3.7-1.5q0.4-0.1 0.6-0.6 0.2-0.4 0-0.8-0.2-0.4-0.6-0.6z"/>
		<path id="Layer" fill-rule="evenodd" class="s0" d="m77.9 1312.8c-7.8 7.8-18 11.7-28.2 11.7-10.2 0-20.4-3.9-28.1-11.7-15.5-15.5-15.5-40.8 0-56.3 7.5-7.5 17.5-11.6 28.1-11.6 10.7 0 20.7 4.1 28.2 11.6 15.5 15.5 15.5 40.8 0 56.3zm-5.5-46.6c0-0.3-0.2-0.5-0.4-0.6l-22-8.8q-0.1-0.1-0.3-0.1-0.1 0-0.2 0.1l-22 8.8c-0.3 0.1-0.4 0.3-0.4 0.6v15.6c0 14.1 9 26.5 22.4 30.8q0.2 0 0.4 0c13.5-4.3 22.5-16.7 22.5-30.8z"/>
		<path id="Layer" fill-rule="evenodd" class="s1" d="m49.7 1207.6c-27.3 0-49.5-22.2-49.5-49.5 0-27.3 22.2-49.6 49.5-49.6 27.3 0 49.6 22.3 49.6 49.6 0 27.3-22.3 49.5-49.6 49.5zm0-95.8c-25.5 0-46.2 20.8-46.2 46.3 0 25.5 20.7 46.2 46.2 46.2 25.5 0 46.3-20.7 46.3-46.2 0-25.5-20.8-46.3-46.3-46.3z"/>
		<path id="Layer" class="s1" d="m82.1 1122.7l-15.4 15.3 3 3.1 15.4-15.4z"/>
		<path id="Layer" class="s1" d="m29.3 1175.5l-15.4 15.3 3 3.1 15.4-15.4z"/>
		<path id="Layer" class="s1" d="m70.2 1175.5l-3 3 15.3 15.4 3-3z"/>
		<path id="Layer" class="s1" d="m16.9 1122.3l-3 3 15.4 15.3 3-3z"/>
		<path id="Layer" class="s1" d="m61.8 1159.4c1-1 1-2.6 0-3.6l-2.1-2.1c-1-1-2.6-1-3.6 0l-1.2 1.1-1.3-1.3c-1-1-2.6-1-3.6 0l-1.1 1.2-1.3-1.4c-1-1-2.7-1-3.6 0l-7.1 7q0 0.2 0 0.2c1 1 2.5 1 3.4 0l4.6-4.5c0.5-0.5 1.3-0.5 1.7 0l0.4 0.4q0.1 0.1 0 0.2l-3.8 3.7q-0.1 0.2 0 0.2c0.9 1 2.5 1 3.4 0l4.4-4.3c0.4-0.5 1.2-0.5 1.7 0l0.4 0.3q0 0.1 0 0.2l-3.7 3.7q-0.1 0.1 0 0.2c0.9 0.9 2.5 0.9 3.4 0l4.2-4.2c0.5-0.5 1.3-0.5 1.8 0l0.7 0.7c0.3 0.3 0.3 0.8 0 1l-0.1 0.1c-0.3 0.3-0.8 0.3-1 0l-1-0.9q-0.1-0.1-0.2 0l-1.6 1.6q0 0.1 0 0.2l1.5 1.5c1 1 2.6 1 3.6 0l1.1-1.2z"/>
		<path id="Layer" fill-rule="evenodd" class="s1" d="m87.7 1158.1c0 21-17 38-38 38-21 0-38-17-38-38 0-21 17-38 38-38 21 0 38 17 38 38zm-36.4-18.5c4 0.3 7.6 1.9 10.4 4.3l5.5-5.5c-4.3-3.8-9.8-6.2-15.9-6.6zm-19-1.2l5.5 5.5c2.8-2.4 6.4-4 10.4-4.3v-7.8c-6.1 0.4-11.6 2.8-15.9 6.6zm-8.8 18.2h7.7c0.4-4 1.9-7.6 4.4-10.5l-5.5-5.5c-3.8 4.3-6.3 9.9-6.6 16zm6.6 19l5.5-5.5c-2.5-2.9-4-6.5-4.4-10.4h-7.7c0.3 6 2.8 11.6 6.6 15.9zm18.1 1c-4-0.3-7.6-1.9-10.4-4.3l-5.5 5.5c4.3 3.8 9.8 6.2 15.9 6.6zm1.5-2.6c8.8 0 16-7.1 16-15.9 0-8.9-7.2-16-16-16-8.8 0-15.9 7.1-15.9 16 0 8.8 7.1 15.9 15.9 15.9zm17.5 3.7l-5.5-5.5c-2.8 2.5-6.4 4-10.4 4.4v7.7c6.1-0.3 11.6-2.8 15.9-6.6zm8.8-18.1h-7.8c-0.3 4-1.9 7.6-4.3 10.4l5.5 5.5c3.8-4.3 6.2-9.8 6.6-15.9zm0-3.1c-0.4-6.1-2.8-11.6-6.6-15.9l-5.5 5.5c2.4 2.8 4 6.5 4.3 10.4z"/>
		<path id="Layer" fill-rule="evenodd" class="s0" d="m49.9 1084.2c-27.3 0-49.6-22.3-49.6-49.6 0-27.3 22.3-49.5 49.6-49.5 27.3 0 49.5 22.2 49.5 49.5 0 27.3-22.2 49.6-49.5 49.6zm0-95.8c-25.5 0-46.3 20.7-46.3 46.2 0 25.5 20.8 46.2 46.3 46.2 25.5 0 46.2-20.7 46.2-46.2 0-25.5-20.7-46.2-46.2-46.2z"/>
		<path id="Layer" fill-rule="evenodd" class="s0" d="m66 1003.7q-0.4 0-0.8-0.2c-4.8-2.4-9.9-3.6-15.3-3.6-5.4 0-10.6 1.2-15.4 3.6-0.6 0.3-1.4 0.2-1.9-0.3l-8.5-8.5c-0.3-0.4-0.5-0.9-0.4-1.4 0-0.5 0.3-1 0.8-1.2 7.6-4.6 16.4-7 25.4-7 9 0 17.8 2.4 25.4 7 0.5 0.2 0.8 0.7 0.8 1.2 0.1 0.5-0.1 1-0.4 1.4l-8.6 8.5c-0.3 0.3-0.7 0.5-1.1 0.5zm-16.1-7.1c5.5 0 10.8 1.2 15.7 3.4l6.2-6.1c-6.7-3.6-14.2-5.5-21.9-5.5-7.7 0-15.2 1.9-21.9 5.5l6.2 6.1c4.9-2.2 10.2-3.4 15.7-3.4z"/>
		<path id="Layer" fill-rule="evenodd" class="s0" d="m49.9 1084.2q0-0.1 0-0.1 0 0 0 0.1zm-25.4-7.1c-0.5-0.2-0.8-0.7-0.8-1.2-0.1-0.5 0.1-1 0.4-1.4l8.6-8.5c0.5-0.5 1.2-0.6 1.8-0.3 4.8 2.4 10 3.6 15.4 3.6 5.4 0 10.5-1.2 15.3-3.6 0.7-0.3 1.4-0.2 1.9 0.3l8.5 8.5c0.4 0.4 0.6 0.9 0.5 1.4-0.1 0.5-0.3 1-0.8 1.2-7.7 4.6-16.4 7-25.4 7-9 0-17.8-2.4-25.4-7zm3.5-1.8c6.7 3.7 14.2 5.5 21.9 5.5 7.7 0 15.2-1.8 21.9-5.5l-6.2-6.1c-4.9 2.2-10.2 3.4-15.7 3.4-5.5 0-10.8-1.2-15.7-3.4z"/>
		<path id="Layer" fill-rule="evenodd" class="s0" d="m91 1060.8c-0.5 0-0.9-0.1-1.2-0.4l-8.5-8.6c-0.5-0.4-0.6-1.2-0.3-1.8 2.4-4.8 3.6-10 3.6-15.4 0-5.4-1.2-10.5-3.6-15.3-0.3-0.7-0.2-1.4 0.3-1.9l8.5-8.5c0.4-0.4 0.9-0.6 1.4-0.5 0.5 0.1 0.9 0.4 1.2 0.8 4.6 7.7 7 16.5 7 25.4 0 9-2.4 17.8-7 25.5-0.3 0.4-0.7 0.7-1.2 0.8q-0.1 0-0.2 0zm-6.5-10.6l6.1 6.2c3.6-6.7 5.5-14.2 5.5-21.9 0-7.6-1.9-15.2-5.5-21.9l-6.1 6.2c2.2 4.9 3.4 10.2 3.4 15.7 0 5.5-1.2 10.8-3.4 15.7z"/>
		<path id="Layer" fill-rule="evenodd" class="s0" d="m8.8 1060.8q-0.1 0.1-0.2 0c-0.5 0-1-0.3-1.2-0.8-4.6-7.6-7.1-16.4-7.1-25.4 0-9 2.5-17.8 7.1-25.4 0.2-0.5 0.7-0.8 1.2-0.8 0.5-0.1 1 0.1 1.3 0.5l8.6 8.5c0.5 0.5 0.6 1.2 0.3 1.9-2.4 4.7-3.6 9.9-3.6 15.3 0 5.4 1.2 10.5 3.6 15.3 0.3 0.7 0.2 1.4-0.3 1.9l-8.6 8.5c-0.3 0.4-0.7 0.5-1.1 0.5zm0.3-48.1c-3.6 6.7-5.5 14.2-5.5 21.9 0 7.7 1.9 15.2 5.5 21.9l6.2-6.2c-2.2-4.9-3.4-10.2-3.4-15.7 0-5.5 1.2-10.8 3.4-15.7z"/>
		<path id="Layer" fill-rule="evenodd" class="s0" d="m87.9 1034.6c0 21-17.1 38-38 38-21 0-38-17-38-38 0-20.9 17-38 38-38 20.9 0 38 17.1 38 38zm-16.6-12.5q-0.1-0.2-0.4-0.2c-3.1 0.3-6.3 0.1-9.4-0.6q-0.1 0-0.1 0c-0.1 0-0.2 0-0.3 0.1l-2.9 4c-0.1 0.1-0.1 0.3 0 0.4 1.8 3.5 3 7.2 3.5 11.1 0.1 0.1 0.2 0.2 0.3 0.3l4.7 1.5c0.1 0 0.3 0 0.4-0.1q3.1-3.6 7.2-6.1 0.2-0.1 0.2-0.4c-0.3-3.5-1.4-6.9-3.2-10zm-12.1 15.4c-0.5-3.7-1.7-7.3-3.5-10.7q-0.1-0.1-0.2-0.1-2.8-0.6-5.6-0.6-2.9 0-5.6 0.6-0.2 0-0.3 0.1c-1.8 3.4-3 7-3.4 10.7q-0.1 0.2 0 0.3c2.5 2.8 5.7 5.1 9.1 6.6q0.2 0.1 0.3 0c3.5-1.5 6.6-3.7 9.1-6.6q0.1-0.1 0.1-0.3zm-0.6-25.8c-0.1 0-0.2 0.2-0.1 0.4 0.7 2.2 1.7 4.4 2.9 6.4q0.1 0.1 0.2 0.2c2.3 0.5 4.7 0.8 7 0.7 0.2 0 0.3-0.1 0.4-0.2 0 0 0-0.2-0.1-0.4-2.7-3.2-6.1-5.7-9.9-7.2q-0.1 0-0.2 0c-0.1 0-0.2 0.1-0.2 0.1zm-14.3-1c-0.7 3.1-1.9 6.1-3.6 8.8 0 0.1 0 0.3 0.1 0.4l2.9 4c0 0.1 0.2 0.2 0.3 0.1 3.8-0.7 7.9-0.7 11.7 0 0.1 0.1 0.2 0 0.3-0.1l2.9-4q0.1-0.2 0-0.4c-1.6-2.7-2.8-5.7-3.5-8.8 0-0.1-0.2-0.2-0.3-0.2-3.4-0.8-7.1-0.8-10.5 0-0.2 0-0.3 0.1-0.3 0.2zm-13.5 8.1c-0.1 0.2-0.1 0.4-0.1 0.4 0.1 0.1 0.2 0.2 0.4 0.2 2.3 0.1 4.7-0.2 7-0.7q0.1-0.1 0.2-0.2c1.2-2 2.2-4.2 2.9-6.4 0.1-0.2 0-0.3-0.1-0.4 0 0-0.1-0.1-0.2-0.1q-0.1 0-0.2 0c-3.8 1.5-7.2 4-9.9 7.2zm-2.3 3.4c-1.8 3-2.9 6.4-3.3 10q0 0.2 0.2 0.3c2.7 1.7 5.1 3.7 7.3 6.1 0 0.1 0.2 0.2 0.3 0.1l4.7-1.5c0.2-0.1 0.3-0.2 0.3-0.3 0.5-3.9 1.7-7.6 3.6-11.1 0-0.1 0-0.2-0.1-0.3l-2.9-4c0-0.2-0.2-0.2-0.3-0.2-3.1 0.7-6.3 0.9-9.5 0.7q0 0 0 0-0.2 0-0.3 0.2zm1.1 25.6q1.1-3.4 1.4-6.9 0-0.2-0.1-0.3c-1.5-1.8-3.3-3.4-5.2-4.7-0.2-0.1-0.3-0.1-0.4 0 0 0-0.2 0.1-0.2 0.3 0.3 4.1 1.6 8.2 3.8 11.7 0.1 0.1 0.3 0.1 0.4 0.1 0 0 0.2 0 0.3-0.2zm10.3 9.5c0.1 0 0.2 0 0.4-0.1 2.4-2.1 5.1-3.7 8-5 0.1-0.1 0.2-0.2 0.2-0.3v-4.9c0-0.2-0.1-0.3-0.2-0.4-3.6-1.5-6.8-3.9-9.4-6.8q-0.1-0.1-0.3-0.1c0 0-0.1 0-0.1 0l-4.7 1.5c-0.1 0-0.2 0.2-0.2 0.3-0.3 3.2-1.1 6.3-2.3 9.2-0.1 0.1 0 0.3 0.1 0.4 2.4 2.7 5.2 4.8 8.5 6.2zm16.4 1c0 0 0-0.2-0.2-0.4-1.9-1.4-3.9-2.5-6.1-3.4q-0.1-0.1-0.3 0c-2.2 0.9-4.2 2-6.1 3.4-0.2 0.2-0.2 0.4-0.2 0.4 0 0.1 0.1 0.3 0.3 0.3 4 1 8.3 1 12.3 0 0.2 0 0.2-0.2 0.3-0.3zm12-7.2c0.1-0.1 0.1-0.3 0.1-0.4q-1.9-4.4-2.3-9.2c0-0.1-0.1-0.2-0.3-0.3l-4.6-1.5q-0.1 0-0.1 0-0.2 0-0.3 0.1c-2.6 2.9-5.9 5.3-9.4 6.9-0.2 0-0.2 0.2-0.2 0.3v4.9c0 0.1 0 0.3 0.2 0.3q4.4 1.9 8 5c0.1 0.1 0.3 0.2 0.4 0.1 3.3-1.4 6.1-3.5 8.5-6.2zm2.4-3.2c2.3-3.5 3.6-7.6 3.8-11.7 0.1-0.2-0.1-0.3-0.2-0.3q0-0.1-0.1-0.1-0.1 0-0.2 0.1-2.9 2-5.3 4.7 0 0.1 0 0.3 0.3 3.5 1.4 6.9c0.1 0.2 0.2 0.2 0.3 0.2 0.1 0.1 0.2 0.1 0.4-0.1z"/>
		<path id="Layer" fill-rule="evenodd" class="s2" d="m99.1 912.3c0 27.3-22.2 49.5-49.5 49.5-27.4 0-49.6-22.2-49.6-49.5 0-27.3 22.2-49.6 49.6-49.6 27.3 0 49.5 22.3 49.5 49.6zm-95.5 0c0 25.3 20.6 46 46 46 25.3 0 45.9-20.7 45.9-46 0-25.4-20.6-46-45.9-46-25.4 0-46 20.6-46 46z"/>
		<path id="Layer" class="s2" d="m99.1 791.1c0 1-0.8 1.8-1.8 1.8-0.9 0-1.7-0.8-1.7-1.8 0-25.3-20.7-45.9-46-45.9-25.4 0-46 20.6-46 45.9 0 1-0.8 1.8-1.8 1.8-1 0-1.8-0.8-1.8-1.8 0-27.3 22.3-49.5 49.6-49.5 27.3 0 49.5 22.2 49.5 49.5z"/>
		<path id="Layer" class="s2" d="m40 903.5c0 1.9 1.3 3.4 3 3.9l3.4 0.8v-8.6h-2.4c-2.2 0-4 1.7-4 3.9z"/>
		<path id="Layer" class="s2" d="m52.7 925h2.4c2.2 0 4-1.8 4-4 0-1.8-1.2-3.4-3-3.8l-3.4-0.8v8.6z"/>
		<path id="Layer" fill-rule="evenodd" class="s2" d="m89.9 912.3c0 22.2-18.1 40.3-40.3 40.3-22.3 0-40.4-18.1-40.4-40.3 0-22.2 18.1-40.3 40.4-40.3 22.2 0 40.3 18.1 40.3 40.3zm-24.4-9.6c0-5.2-4.3-9.5-9.6-9.5h-3.2v-8.1h-6.3v8.1h-2.4c-5.7 0-10.3 4.6-10.3 10.3 0 4.8 3.2 8.9 7.8 10l4.9 1.3v10.2h-3.2c-1.8 0-3.2-1.4-3.2-3.2v-3.2h-6.4v3.2c0 5.3 4.3 9.6 9.6 9.6h3.2v8h6.3v-8h2.4c5.7 0 10.4-4.7 10.4-10.4 0-4.7-3.3-8.8-7.9-10l-4.9-1.2v-10.2h3.2c1.8 0 3.2 1.4 3.2 3.1v3.2h6.4z"/>
		<path id="Layer" class="s2" d="m99.2 790.4v119.6c0 1-0.8 1.8-1.8 1.8-1 0-1.8-0.8-1.8-1.8v-119.6c0-1 0.8-1.8 1.8-1.8 1 0 1.8 0.8 1.8 1.8z"/>
		<path id="Layer" class="s2" d="m3.6 790.1v119.6c0 1-0.8 1.8-1.7 1.8-1 0-1.8-0.8-1.8-1.8v-119.6c0-1 0.8-1.8 1.8-1.8 0.9 0.1 1.7 0.9 1.7 1.8z"/>
		<path id="Layer" fill-rule="evenodd" class="s0" d="m49.7 711c-12.7 0-25.4-4.8-35-14.5-19.4-19.3-19.4-50.8 0-70.1 9.3-9.4 21.8-14.5 35-14.5 13.3 0 25.7 5.1 35.1 14.5 19.3 19.3 19.3 50.8 0 70.1-9.7 9.7-22.4 14.5-35.1 14.5zm-32.4-17.1c17.9 17.9 47 17.9 64.9 0 17.9-17.9 17.9-47 0-64.9-8.7-8.7-20.2-13.4-32.5-13.4-12.2 0-23.8 4.7-32.4 13.4-17.9 17.9-17.9 47 0 64.9z"/>
		<path id="Layer" class="s0" d="m49.1 680c0.2 0.4 0.6 0.7 1 0.7q0.2 0 0.4-0.1c3.5-1.5 6.7-3.8 9.2-6.6 0.5-0.4 0.4-1.1 0-1.6-0.5-0.4-1.2-0.3-1.6 0.1-2.3 2.6-5.2 4.7-8.4 6-0.6 0.3-0.9 0.9-0.6 1.5z"/>
		<path id="Layer" fill-rule="evenodd" class="s0" d="m69.3 645.3v13.3c0 12.2-7.7 23.2-19.2 27.5q-0.2 0-0.4 0-0.2 0-0.4 0c-11.4-4.3-19.2-15.3-19.2-27.5v-13.3c0-0.4 0.3-0.8 0.7-1l18.5-7.4q0.4-0.1 0.8 0l18.5 7.4c0.4 0.2 0.7 0.6 0.7 1zm-2.2 0.8l-17.4-6.9-17.3 6.9v12.5c0 11.1 7 21.2 17.3 25.2 10.4-4 17.4-14.1 17.4-25.2z"/>
		<path id="Layer" class="s0" d="m42 646q-0.4-0.1-0.8 0l-4.4 1.8c-0.5 0.2-0.7 0.6-0.7 1v4.7c0 0.6 0.5 1.1 1.1 1.1 0.6 0 1.1-0.5 1.1-1.1v-3.9l3.7-1.5q0.4-0.2 0.6-0.6 0.2-0.4 0-0.8-0.2-0.5-0.6-0.7z"/>
		<path id="Layer" fill-rule="evenodd" class="s0" d="m77.9 689.6c-7.8 7.8-18 11.6-28.2 11.6-10.2 0-20.4-3.8-28.1-11.6-15.5-15.5-15.5-40.8 0-56.3 7.5-7.5 17.5-11.7 28.1-11.7 10.7 0 20.7 4.2 28.2 11.7 15.5 15.5 15.5 40.8 0 56.3zm-5.5-46.6c0-0.3-0.2-0.5-0.4-0.6l-22-8.8q-0.1-0.1-0.3-0.1-0.1 0-0.2 0.1l-22 8.8c-0.3 0.1-0.4 0.3-0.4 0.6v15.6c0 14.1 9 26.5 22.4 30.7q0.2 0.1 0.4 0c13.5-4.2 22.5-16.6 22.5-30.7z"/>
		<path id="Layer" fill-rule="evenodd" class="s1" d="m49.7 584.4c-27.3 0-49.5-22.2-49.5-49.6 0-27.3 22.2-49.5 49.5-49.5 27.3 0 49.6 22.2 49.6 49.5 0 27.4-22.3 49.6-49.6 49.6zm0-95.8c-25.5 0-46.2 20.7-46.2 46.2 0 25.5 20.7 46.3 46.2 46.3 25.5 0 46.3-20.8 46.3-46.3 0-25.5-20.8-46.2-46.3-46.2z"/>
		<path id="Layer" class="s1" d="m82.1 499.5l-15.4 15.3 3 3 15.4-15.3z"/>
		<path id="Layer" class="s1" d="m29.3 552.3l-15.4 15.3 3 3 15.4-15.3z"/>
		<path id="Layer" class="s1" d="m70.2 552.3l-3 3 15.3 15.4 3-3.1z"/>
		<path id="Layer" class="s1" d="m16.9 499l-3 3.1 15.4 15.3 3-3z"/>
		<path id="Layer" class="s1" d="m61.8 536.2c1-1 1-2.6 0-3.6l-2.1-2.1c-1-1-2.6-1-3.6 0l-1.2 1.1-1.3-1.3c-1-1-2.6-1-3.6 0l-1.1 1.1-1.3-1.3c-1-1-2.7-1-3.6 0l-7.1 7q0 0.1 0 0.2c1 1 2.5 1 3.4 0l4.6-4.5c0.5-0.5 1.3-0.5 1.7 0l0.4 0.3c0 0.1 0 0.2 0 0.3l-3.8 3.7q-0.1 0.1 0 0.2c0.9 1 2.5 1 3.4 0l4.4-4.3c0.4-0.5 1.2-0.5 1.7 0l0.4 0.3q0 0.1 0 0.2l-3.7 3.7q-0.1 0.1 0 0.2c0.9 0.9 2.5 0.9 3.4 0l4.2-4.2c0.5-0.5 1.3-0.5 1.8 0l0.7 0.7c0.3 0.3 0.3 0.7 0 1l-0.1 0.1c-0.3 0.3-0.8 0.3-1 0l-1-0.9q-0.1-0.1-0.2 0l-1.6 1.6q0 0.1 0 0.2l1.5 1.5c1 1 2.6 1 3.6 0l1.1-1.2z"/>
		<path id="Layer" fill-rule="evenodd" class="s1" d="m87.7 534.8c0 21-17 38-38 38-21 0-38-17-38-38 0-20.9 17-37.9 38-37.9 21 0 38 17 38 37.9zm-36.4-18.5c4 0.4 7.6 1.9 10.4 4.4l5.5-5.5c-4.3-3.8-9.8-6.3-15.9-6.6zm-19-1.2l5.5 5.5c2.8-2.4 6.4-4 10.4-4.3v-7.8c-6.1 0.4-11.6 2.8-15.9 6.6zm-8.8 18.1h7.7c0.4-3.9 1.9-7.5 4.4-10.4l-5.5-5.5c-3.8 4.3-6.3 9.8-6.6 15.9zm6.6 19.1l5.5-5.5c-2.5-2.9-4-6.5-4.4-10.5h-7.7c0.3 6.1 2.8 11.7 6.6 16zm18.1 1c-4-0.3-7.6-1.9-10.4-4.3l-5.5 5.4c4.3 3.9 9.8 6.3 15.9 6.6zm1.5-2.5c8.8 0 16-7.2 16-16 0-8.8-7.2-15.9-16-15.9-8.8 0-15.9 7.1-15.9 15.9 0 8.8 7.1 16 15.9 16zm17.5 3.7l-5.5-5.5c-2.8 2.4-6.4 4-10.4 4.3v7.8c6.1-0.4 11.6-2.8 15.9-6.6zm8.8-18.1h-7.8c-0.3 4-1.9 7.6-4.3 10.4l5.5 5.5c3.8-4.3 6.2-9.8 6.6-15.9zm0-3.1c-0.4-6.1-2.8-11.6-6.6-15.9l-5.5 5.5c2.4 2.8 4 6.4 4.3 10.4z"/>
		<path id="Layer" fill-rule="evenodd" class="s0" d="m49.9 460.9c-27.3 0-49.6-22.2-49.6-49.5 0-27.3 22.3-49.6 49.6-49.6 27.3 0 49.5 22.3 49.5 49.6 0 27.3-22.2 49.5-49.5 49.5zm0-95.8c-25.5 0-46.3 20.8-46.3 46.3 0 25.5 20.8 46.2 46.3 46.2 25.5 0 46.2-20.7 46.2-46.2 0-25.5-20.7-46.3-46.2-46.3z"/>
		<path id="Layer" fill-rule="evenodd" class="s0" d="m66 380.5q-0.4 0-0.8-0.2c-4.8-2.4-9.9-3.6-15.3-3.6-5.4 0-10.6 1.2-15.4 3.6-0.6 0.3-1.4 0.2-1.9-0.3l-8.5-8.5c-0.3-0.4-0.5-0.9-0.4-1.4 0-0.5 0.3-1 0.8-1.2 7.6-4.6 16.4-7.1 25.4-7.1 9 0 17.8 2.5 25.4 7.1 0.5 0.2 0.8 0.7 0.8 1.2 0.1 0.5-0.1 1-0.4 1.4l-8.6 8.5c-0.3 0.3-0.7 0.5-1.1 0.5zm-16.1-7.1c5.5 0 10.8 1.2 15.7 3.4l6.2-6.2c-6.7-3.6-14.2-5.5-21.9-5.5-7.7 0-15.2 1.9-21.9 5.5l6.2 6.2c4.9-2.2 10.2-3.4 15.7-3.4z"/>
		<path id="Layer" fill-rule="evenodd" class="s0" d="m49.9 460.9q0 0 0 0 0 0 0 0zm-25.4-7c-0.5-0.3-0.8-0.7-0.8-1.2-0.1-0.5 0.1-1 0.4-1.4l8.6-8.5c0.5-0.5 1.2-0.6 1.8-0.3 4.8 2.4 10 3.6 15.4 3.6 5.4 0 10.5-1.2 15.3-3.6 0.7-0.3 1.4-0.2 1.9 0.3l8.5 8.5c0.4 0.4 0.6 0.9 0.5 1.4-0.1 0.5-0.3 0.9-0.8 1.2-7.7 4.6-16.4 7-25.4 7-9 0-17.8-2.4-25.4-7zm3.5-1.8c6.7 3.6 14.2 5.5 21.9 5.5 7.7 0 15.2-1.9 21.9-5.5l-6.2-6.1c-4.9 2.2-10.2 3.4-15.7 3.4-5.5 0-10.8-1.2-15.7-3.4z"/>
		<path id="Layer" fill-rule="evenodd" class="s0" d="m91 437.6c-0.5 0-0.9-0.1-1.2-0.5l-8.5-8.5c-0.5-0.5-0.6-1.2-0.3-1.9 2.4-4.8 3.6-9.9 3.6-15.3 0-5.4-1.2-10.5-3.6-15.3-0.3-0.7-0.2-1.5 0.3-1.9l8.5-8.6c0.4-0.3 0.9-0.5 1.4-0.4 0.5 0 0.9 0.3 1.2 0.8 4.6 7.6 7 16.4 7 25.4 0 9-2.4 17.8-7 25.4-0.3 0.5-0.7 0.8-1.2 0.8q-0.1 0-0.2 0zm-6.5-10.5l6.1 6.2c3.6-6.7 5.5-14.2 5.5-21.9 0-7.7-1.9-15.2-5.5-21.9l-6.1 6.2c2.2 4.9 3.4 10.2 3.4 15.7 0 5.5-1.2 10.8-3.4 15.7z"/>
		<path id="Layer" fill-rule="evenodd" class="s0" d="m8.8 437.6q-0.1 0-0.2 0c-0.5 0-1-0.3-1.2-0.8-4.6-7.6-7.1-16.4-7.1-25.4 0-9 2.5-17.8 7.1-25.5 0.2-0.4 0.7-0.7 1.2-0.7 0.5-0.1 1 0.1 1.3 0.4l8.6 8.5c0.5 0.5 0.6 1.3 0.3 1.9-2.4 4.8-3.6 10-3.6 15.4 0 5.4 1.2 10.5 3.6 15.3 0.3 0.7 0.2 1.4-0.3 1.9l-8.6 8.5c-0.3 0.3-0.7 0.5-1.1 0.5zm0.3-48.1c-3.6 6.7-5.5 14.2-5.5 21.9 0 7.6 1.9 15.2 5.5 21.9l6.2-6.2c-2.2-5-3.4-10.2-3.4-15.7 0-5.5 1.2-10.8 3.4-15.8z"/>
		<path id="Layer" fill-rule="evenodd" class="s0" d="m87.9 411.4c0 20.9-17.1 38-38 38-21 0-38-17.1-38-38 0-21 17-38 38-38 20.9 0 38 17 38 38zm-16.6-12.5q-0.1-0.2-0.4-0.2c-3.1 0.3-6.3 0-9.4-0.7q-0.1 0-0.1 0-0.2 0.1-0.3 0.2l-2.9 4q-0.1 0.2 0 0.4c1.8 3.4 3 7.2 3.5 11q0.1 0.3 0.3 0.3l4.7 1.6c0.1 0 0.3 0 0.4-0.1q3.1-3.6 7.2-6.1 0.2-0.1 0.2-0.4c-0.3-3.5-1.4-6.9-3.2-10zm-12.1 15.4c-0.5-3.8-1.7-7.4-3.5-10.7q-0.1-0.1-0.2-0.2-2.8-0.5-5.6-0.5-2.9 0-5.6 0.5-0.2 0.1-0.3 0.2c-1.8 3.3-3 6.9-3.4 10.7q-0.1 0.2 0 0.3c2.5 2.8 5.7 5.1 9.1 6.6q0.2 0 0.3 0c3.5-1.5 6.6-3.8 9.1-6.6q0.1-0.1 0.1-0.3zm-0.6-25.8c-0.1 0-0.2 0.2-0.1 0.4 0.7 2.2 1.7 4.4 2.9 6.4q0.1 0.1 0.2 0.1c2.3 0.6 4.7 0.9 7 0.8 0.2 0 0.3-0.1 0.4-0.2 0-0.1 0-0.2-0.1-0.4-2.7-3.2-6.1-5.7-9.9-7.2q-0.1 0-0.2 0c-0.1 0-0.2 0.1-0.2 0.1zm-14.3-1c-0.7 3.1-1.9 6-3.6 8.8 0 0.1 0 0.3 0.1 0.4l2.9 4c0 0.1 0.2 0.1 0.3 0.1 3.8-0.8 7.9-0.8 11.7 0 0.1 0 0.2 0 0.3-0.1l2.9-4c0.1-0.1 0.1-0.3 0-0.4-1.6-2.8-2.8-5.7-3.5-8.8 0-0.1-0.2-0.2-0.3-0.3-3.4-0.7-7.1-0.7-10.5 0-0.2 0.1-0.3 0.2-0.3 0.3zm-13.5 8.1c-0.1 0.2-0.1 0.3-0.1 0.4 0.1 0.1 0.2 0.2 0.4 0.2 2.3 0.1 4.7-0.2 7-0.8q0.1 0 0.2-0.1 1.8-3 2.9-6.4c0.1-0.2 0-0.4-0.1-0.4 0-0.1-0.1-0.1-0.2-0.1q-0.1 0-0.2 0c-3.8 1.5-7.2 4-9.9 7.2zm-2.3 3.3c-1.8 3.1-2.9 6.5-3.3 10.1 0 0.1 0.1 0.2 0.2 0.3q4.1 2.5 7.3 6.1c0 0.1 0.2 0.1 0.3 0.1l4.7-1.5q0.2-0.1 0.3-0.3c0.5-3.9 1.7-7.6 3.6-11.1 0-0.1 0-0.3-0.1-0.4l-2.9-4q-0.1-0.2-0.3-0.1c-3.1 0.7-6.3 0.9-9.5 0.6q0 0 0 0-0.2 0-0.3 0.2zm1.1 25.7q1.1-3.4 1.4-6.9 0-0.2-0.1-0.3c-1.5-1.8-3.3-3.4-5.2-4.7-0.2-0.2-0.3-0.1-0.4-0.1 0 0.1-0.2 0.2-0.2 0.4 0.3 4.1 1.6 8.2 3.8 11.6 0.1 0.2 0.3 0.2 0.4 0.2 0 0 0.2 0 0.3-0.2zm10.3 9.4c0.1 0.1 0.2 0.1 0.4 0 2.4-2.1 5.1-3.8 8-5 0.1-0.1 0.2-0.2 0.2-0.4v-4.8q0-0.3-0.2-0.4c-3.6-1.6-6.8-3.9-9.4-6.8q-0.1-0.2-0.3-0.2c0 0-0.1 0.1-0.1 0.1l-4.7 1.5c-0.1 0-0.2 0.1-0.2 0.3-0.3 3.1-1.1 6.2-2.3 9.2-0.1 0.1 0 0.2 0.1 0.4 2.4 2.6 5.2 4.7 8.5 6.2zm16.4 1c0-0.1 0-0.3-0.2-0.4-1.9-1.4-3.9-2.6-6.1-3.5q-0.1 0-0.3 0c-2.2 0.9-4.2 2.1-6.1 3.5-0.2 0.2-0.2 0.3-0.2 0.4 0 0.1 0.1 0.2 0.3 0.3 4 1 8.3 1 12.3 0 0.2-0.1 0.2-0.2 0.3-0.3zm12-7.2c0.1-0.1 0.1-0.3 0.1-0.4q-1.9-4.4-2.3-9.2c0-0.1-0.1-0.3-0.3-0.3l-4.6-1.5q-0.1-0.1-0.1 0-0.2 0-0.3 0.1c-2.6 2.9-5.9 5.3-9.4 6.8-0.2 0.1-0.2 0.2-0.2 0.4v4.9q0 0.2 0.2 0.3c2.9 1.2 5.6 2.9 8 5 0.1 0.1 0.3 0.1 0.4 0.1 3.3-1.5 6.1-3.5 8.5-6.2zm2.4-3.3c2.3-3.4 3.6-7.5 3.8-11.6 0.1-0.2-0.1-0.3-0.2-0.4q0 0-0.1 0-0.1 0-0.2 0.1-2.9 2-5.3 4.7 0 0.1 0 0.3 0.3 3.5 1.4 6.9c0.1 0.2 0.2 0.2 0.3 0.2 0.1 0 0.2 0 0.4-0.1z"/>
		<path id="Layer" fill-rule="evenodd" class="s2" d="m99.1 289.1c0 27.3-22.2 49.5-49.5 49.5-27.4 0-49.6-22.2-49.6-49.5 0-27.4 22.2-49.6 49.6-49.6 27.3 0 49.5 22.2 49.5 49.6zm-95.5 0c0 25.3 20.6 46 46 46 25.3 0 45.9-20.7 45.9-46 0-25.4-20.6-46-45.9-46-25.4 0-46 20.6-46 46z"/>
		<path id="Layer" class="s2" d="m99.1 167.9c0 1-0.8 1.8-1.8 1.8-0.9 0-1.7-0.8-1.7-1.8 0-25.3-20.7-46-46-46-25.4 0-46 20.7-46 46 0 1-0.8 1.8-1.8 1.8-1 0-1.8-0.8-1.8-1.8 0-27.3 22.3-49.5 49.6-49.5 27.3 0 49.5 22.2 49.5 49.5z"/>
		<path id="Layer" class="s2" d="m40 280.3c0 1.8 1.3 3.4 3 3.9l3.4 0.8v-8.7h-2.4c-2.2 0-4 1.8-4 4z"/>
		<path id="Layer" class="s2" d="m52.7 301.8h2.4c2.2 0 4-1.8 4-4 0-1.8-1.2-3.4-3-3.8l-3.4-0.9v8.7z"/>
		<path id="Layer" fill-rule="evenodd" class="s2" d="m89.9 289.1c0 22.2-18.1 40.3-40.3 40.3-22.3 0-40.4-18.1-40.4-40.3 0-22.3 18.1-40.4 40.4-40.4 22.2 0 40.3 18.1 40.3 40.4zm-24.4-9.6c0-5.2-4.3-9.5-9.6-9.5h-3.2v-8.1h-6.3v8.1h-2.4c-5.7 0-10.3 4.6-10.3 10.3 0 4.7 3.2 8.9 7.8 10l4.9 1.2v10.3h-3.2c-1.8 0-3.2-1.5-3.2-3.2v-3.2h-6.4v3.2c0 5.3 4.3 9.5 9.6 9.5h3.2v8.1h6.3v-8.1h2.4c5.7 0 10.4-4.6 10.4-10.3 0-4.7-3.3-8.8-7.9-10l-4.9-1.2v-10.3h3.2c1.8 0 3.2 1.5 3.2 3.2v3.2h6.4z"/>
		<path id="Layer" class="s2" d="m99.2 167.2v119.6c0 1-0.8 1.7-1.8 1.7-1 0-1.8-0.8-1.8-1.7v-119.6c0-1 0.8-1.8 1.8-1.8 1 0 1.8 0.8 1.8 1.8z"/>
		<path id="Layer" class="s2" d="m3.6 166.9v119.6c0 1-0.8 1.8-1.7 1.8-1 0-1.8-0.8-1.8-1.8v-119.6c0-1 0.8-1.8 1.8-1.8 0.9 0 1.7 0.8 1.7 1.8z"/>
		<path id="Layer" fill-rule="evenodd" class="s0" d="m49.7 99.1c-12.7 0-25.4-4.8-35-14.5-19.4-19.3-19.4-50.8 0-70.1 9.3-9.3 21.8-14.5 35-14.5 13.3 0 25.7 5.2 35.1 14.5 19.3 19.3 19.3 50.8 0 70.1-9.7 9.7-22.4 14.5-35.1 14.5zm-32.4-17.1c17.9 17.9 47 17.9 64.9 0 17.9-17.9 17.9-47 0-64.9-8.7-8.6-20.2-13.4-32.5-13.4-12.2 0-23.8 4.8-32.4 13.4-17.9 17.9-17.9 47 0 64.9z"/>
		<path id="Layer" class="s0" d="m49.1 68.1c0.2 0.4 0.6 0.7 1 0.7q0.2 0 0.4-0.1c3.5-1.5 6.7-3.7 9.2-6.6 0.5-0.4 0.4-1.1 0-1.5-0.5-0.4-1.2-0.4-1.6 0.1-2.3 2.6-5.2 4.6-8.4 6-0.6 0.2-0.9 0.9-0.6 1.4z"/>
		<path id="Layer" fill-rule="evenodd" class="s0" d="m69.3 33.5v13.2c0 12.2-7.7 23.3-19.2 27.5q-0.2 0-0.4 0-0.2 0-0.4 0c-11.4-4.2-19.2-15.3-19.2-27.5v-13.2c0-0.5 0.3-0.9 0.7-1.1l18.5-7.4q0.4-0.1 0.8 0l18.5 7.4c0.4 0.2 0.7 0.6 0.7 1.1zm-2.2 0.7l-17.4-6.9-17.3 6.9v12.5c0 11.1 7 21.2 17.3 25.2 10.4-4 17.4-14.1 17.4-25.2z"/>
		<path id="Layer" class="s0" d="m42 34.2q-0.4-0.2-0.8 0l-4.4 1.7c-0.5 0.2-0.7 0.6-0.7 1.1v4.7c0 0.6 0.5 1.1 1.1 1.1 0.6 0 1.1-0.5 1.1-1.1v-4l3.7-1.5q0.4-0.1 0.6-0.6 0.2-0.4 0-0.8-0.2-0.4-0.6-0.6z"/>
		<path id="Layer" fill-rule="evenodd" class="s0" d="m77.9 77.7c-7.8 7.8-18 11.7-28.2 11.7-10.2 0-20.4-3.9-28.1-11.7-15.5-15.5-15.5-40.8 0-56.3 7.5-7.5 17.5-11.6 28.1-11.6 10.7 0 20.7 4.1 28.2 11.6 15.5 15.6 15.5 40.8 0 56.3zm-5.5-46.6c0-0.3-0.2-0.5-0.4-0.6l-22-8.8q-0.1-0.1-0.3-0.1-0.1 0-0.2 0.1l-22 8.8c-0.3 0.1-0.4 0.3-0.4 0.6v15.6c0 14.1 9 26.5 22.4 30.8q0.2 0 0.4 0c13.5-4.3 22.5-16.7 22.5-30.8z"/>
	</g>
</svg>