<svg width="100.000000" height="1299.000000" viewBox="0 0 100 1299" fill="none" xmlns="http://www.w3.org/2000/svg" xmlns:xlink="http://www.w3.org/1999/xlink">
	<defs/>
	<g opacity="0.400000">
		<path id="Vector" d="M48.98 1298.22C36.28 1298.22 23.59 1293.39 13.92 1283.72C-5.41 1264.39 -5.41 1232.94 13.92 1213.62C23.29 1204.25 35.74 1199.1 48.98 1199.1C62.22 1199.1 74.67 1204.25 84.03 1213.62C103.36 1232.94 103.36 1264.39 84.03 1283.72C74.37 1293.38 61.68 1298.22 48.98 1298.22ZM16.52 1281.12C34.42 1299.01 63.53 1299.01 81.42 1281.12C99.31 1263.23 99.31 1234.11 81.42 1216.22C72.75 1207.55 61.23 1202.78 48.97 1202.78C36.71 1202.78 25.18 1207.56 16.51 1216.22C-1.38 1234.11 -1.38 1263.23 16.51 1281.12L16.52 1281.12Z" fill="#9DADF2" fill-opacity="1.000000" fill-rule="nonzero"/>
		<path id="Vector" d="M48.32 1267.21C48.5 1267.64 48.92 1267.89 49.35 1267.89C49.5 1267.89 49.64 1267.86 49.79 1267.81C53.29 1266.34 56.47 1264.06 58.99 1261.24C59.4 1260.78 59.36 1260.06 58.9 1259.67C58.44 1259.26 57.73 1259.3 57.33 1259.76C55.03 1262.35 52.12 1264.42 48.93 1265.76C48.36 1266 48.09 1266.65 48.33 1267.21L48.32 1267.21Z" fill="#9DADF2" fill-opacity="1.000000" fill-rule="nonzero"/>
		<path id="Vector" d="M67.87 1231.53L49.38 1224.14C49.11 1224.04 48.82 1224.04 48.55 1224.14L30.06 1231.53C29.64 1231.69 29.37 1232.1 29.37 1232.56L29.37 1245.8C29.39 1258.02 37.11 1269.06 48.58 1273.27C48.71 1273.31 48.83 1273.32 48.97 1273.32C49.1 1273.32 49.23 1273.31 49.35 1273.27C60.82 1269.06 68.54 1258.02 68.57 1245.8L68.57 1232.56C68.57 1232.1 68.29 1231.69 67.87 1231.53ZM66.34 1245.8C66.32 1256.92 59.34 1267.05 48.98 1271.03C38.61 1267.05 31.62 1256.92 31.6 1245.8L31.6 1233.31L48.98 1226.38L66.34 1233.31L66.34 1245.8Z" fill="#9DADF2" fill-opacity="1.000000" fill-rule="nonzero"/>
		<path id="Vector" d="M41.25 1233.27C40.98 1233.16 40.68 1233.16 40.4 1233.27L36 1235.03C35.57 1235.19 35.3 1235.6 35.3 1236.06L35.3 1240.75C35.3 1241.37 35.8 1241.87 36.41 1241.87C37.03 1241.87 37.53 1241.37 37.53 1240.75L37.53 1236.81L41.22 1235.34C41.5 1235.23 41.71 1235.02 41.84 1234.74C41.95 1234.47 41.95 1234.17 41.84 1233.88C41.72 1233.6 41.51 1233.4 41.24 1233.27L41.25 1233.27Z" fill="#9DADF2" fill-opacity="1.000000" fill-rule="nonzero"/>
		<path id="Vector" d="M77.12 1220.52C69.61 1212.99 59.6 1208.86 48.97 1208.86C38.33 1208.86 28.34 1213 20.81 1220.52C5.29 1236.04 5.29 1261.3 20.81 1276.82C28.58 1284.6 38.77 1288.47 48.97 1288.47C59.17 1288.47 69.36 1284.57 77.12 1276.82C92.64 1261.31 92.64 1236.05 77.12 1220.52ZM71.61 1245.8C71.65 1259.93 62.62 1272.28 49.16 1276.56C49.04 1276.6 48.9 1276.6 48.77 1276.56C35.31 1272.28 26.29 1259.93 26.32 1245.8L26.32 1230.18C26.32 1229.92 26.47 1229.68 26.72 1229.57L48.73 1220.78C48.8 1220.75 48.88 1220.74 48.97 1220.74C49.05 1220.74 49.13 1220.75 49.21 1220.78L71.21 1229.59C71.46 1229.68 71.61 1229.92 71.61 1230.18L71.61 1245.81L71.61 1245.8Z" fill="#9DADF2" fill-opacity="1.000000" fill-rule="nonzero"/>
		<path id="Vector" d="M49.12 1171.61C21.8 1171.61 -0.42 1149.38 -0.42 1122.06C-0.42 1094.75 21.81 1072.52 49.12 1072.52C76.43 1072.52 98.67 1094.75 98.67 1122.06C98.67 1149.38 76.43 1171.61 49.12 1171.61ZM49.12 1075.81C23.62 1075.81 2.88 1096.56 2.88 1122.06C2.88 1147.56 23.62 1168.31 49.12 1168.31C74.62 1168.31 95.37 1147.56 95.37 1122.06C95.37 1096.56 74.62 1075.81 49.12 1075.81Z" fill="#FFFFFF" fill-opacity="1.000000" fill-rule="nonzero"/>
		<path id="Vector" d="M65.19 1091.12C64.94 1091.12 64.69 1091.06 64.46 1090.94C59.67 1088.57 54.5 1087.37 49.12 1087.37C43.74 1087.37 38.58 1088.57 33.78 1090.94C33.14 1091.27 32.38 1091.14 31.89 1090.64L23.37 1082.13C23.01 1081.76 22.84 1081.26 22.9 1080.75C22.96 1080.24 23.26 1079.79 23.69 1079.53C31.36 1074.93 40.16 1072.51 49.13 1072.51C58.1 1072.51 66.9 1074.93 74.57 1079.53C75.01 1079.79 75.3 1080.24 75.36 1080.75C75.42 1081.26 75.25 1081.76 74.89 1082.13L66.38 1090.64C66.06 1090.94 65.64 1091.12 65.2 1091.12L65.19 1091.12ZM49.12 1084.06C54.61 1084.06 59.89 1085.22 64.85 1087.48L71.01 1081.31C64.31 1077.69 56.78 1075.81 49.12 1075.81C41.46 1075.81 33.94 1077.69 27.23 1081.31L33.39 1087.48C38.35 1085.22 43.64 1084.06 49.12 1084.06Z" fill="#FFFFFF" fill-opacity="1.000000" fill-rule="nonzero"/>
		<path id="Vector" d="M49.12 1171.61C40.15 1171.61 31.35 1169.17 23.68 1164.57C23.24 1164.31 22.95 1163.88 22.89 1163.37C22.83 1162.86 23 1162.36 23.36 1161.99L31.87 1153.48C32.37 1152.98 33.14 1152.85 33.77 1153.17C38.57 1155.54 43.73 1156.75 49.11 1156.75C54.49 1156.75 59.65 1155.54 64.45 1153.17C65.09 1152.85 65.85 1152.98 66.35 1153.48L74.86 1161.99C75.22 1162.36 75.39 1162.86 75.33 1163.37C75.27 1163.88 74.98 1164.31 74.54 1164.57C66.87 1169.18 58.07 1171.61 49.1 1171.61L49.12 1171.61ZM27.23 1162.8C33.93 1166.42 41.46 1168.31 49.12 1168.31C56.78 1168.31 64.31 1166.42 71.01 1162.8L64.85 1156.64C59.89 1158.9 54.61 1160.05 49.12 1160.05C43.63 1160.05 38.35 1158.9 33.39 1156.64L27.23 1162.8Z" fill="#FFFFFF" fill-opacity="1.000000" fill-rule="nonzero"/>
		<path id="Vector" d="M90.23 1148.29C89.79 1148.29 89.37 1148.13 89.06 1147.81L80.55 1139.3C80.05 1138.8 79.92 1138.03 80.24 1137.41C82.61 1132.61 83.82 1127.44 83.82 1122.06C83.82 1116.68 82.61 1111.52 80.24 1106.72C79.92 1106.09 80.05 1105.31 80.55 1104.82L89.06 1096.31C89.43 1095.94 89.93 1095.78 90.44 1095.85C90.95 1095.91 91.39 1096.19 91.65 1096.64C96.25 1104.31 98.68 1113.1 98.68 1122.06C98.68 1131.05 96.25 1139.84 91.65 1147.51C91.39 1147.94 90.95 1148.24 90.44 1148.3C90.36 1148.3 90.3 1148.3 90.23 1148.3L90.23 1148.29ZM83.7 1137.78L89.86 1143.93C93.48 1137.24 95.37 1129.71 95.37 1122.05C95.37 1114.39 93.48 1106.87 89.86 1100.16L83.7 1106.32C85.96 1111.28 87.11 1116.56 87.11 1122.05C87.11 1127.54 85.96 1132.82 83.7 1137.78Z" fill="#FFFFFF" fill-opacity="1.000000" fill-rule="nonzero"/>
		<path id="Vector" d="M8.02 1148.29C7.95 1148.29 7.88 1148.29 7.82 1148.28C7.31 1148.22 6.86 1147.93 6.6 1147.49C2 1139.81 -0.42 1131.03 -0.42 1122.05C-0.42 1113.07 2 1104.29 6.6 1096.62C6.86 1096.18 7.31 1095.89 7.82 1095.81C8.33 1095.76 8.83 1095.93 9.19 1096.29L17.71 1104.81C18.21 1105.31 18.33 1106.07 18.02 1106.69C15.65 1111.5 14.44 1116.66 14.44 1122.04C14.44 1127.43 15.65 1132.59 18.02 1137.39C18.33 1138.02 18.21 1138.79 17.71 1139.28L9.19 1147.79C8.88 1148.11 8.47 1148.28 8.03 1148.28L8.02 1148.29ZM8.38 1100.16C4.77 1106.87 2.88 1114.39 2.88 1122.05C2.88 1129.71 4.77 1137.24 8.38 1143.93L14.54 1137.78C12.29 1132.82 11.14 1127.54 11.14 1122.05C11.14 1116.56 12.29 1111.28 14.54 1106.32L8.38 1100.16Z" fill="#FFFFFF" fill-opacity="1.000000" fill-rule="nonzero"/>
		<path id="Vector" d="M49.12 1084.06C28.18 1084.06 11.13 1101.11 11.13 1122.06C11.13 1143.02 28.17 1160.06 49.12 1160.06C70.08 1160.06 87.11 1143.02 87.11 1122.06C87.11 1101.11 70.08 1084.06 49.12 1084.06ZM70.5 1109.57C72.3 1112.67 73.4 1116.03 73.75 1119.6C73.76 1119.74 73.7 1119.88 73.57 1119.94C70.86 1121.62 68.42 1123.66 66.32 1126.04C66.22 1126.16 66.07 1126.19 65.93 1126.14L61.24 1124.61C61.1 1124.56 61.01 1124.46 60.99 1124.31C60.46 1120.43 59.25 1116.71 57.4 1113.26C57.34 1113.13 57.35 1112.99 57.43 1112.87L60.33 1108.88C60.41 1108.78 60.52 1108.72 60.64 1108.72C60.67 1108.72 60.69 1108.72 60.72 1108.72C63.82 1109.41 67.01 1109.64 70.17 1109.38C70.32 1109.37 70.45 1109.43 70.52 1109.56L70.5 1109.57ZM58.43 1124.97C58.44 1125.06 58.41 1125.18 58.35 1125.25C55.88 1128.09 52.74 1130.37 49.27 1131.82C49.18 1131.87 49.08 1131.87 48.99 1131.82C45.52 1130.36 42.38 1128.07 39.91 1125.25C39.85 1125.18 39.82 1125.06 39.83 1124.97C40.31 1121.19 41.48 1117.6 43.3 1114.27C43.36 1114.17 43.44 1114.11 43.54 1114.09C45.38 1113.71 47.25 1113.51 49.13 1113.51C51.02 1113.51 52.89 1113.71 54.72 1114.09C54.83 1114.11 54.91 1114.17 54.96 1114.27C56.78 1117.6 57.95 1121.19 58.44 1124.97L58.43 1124.97ZM57.87 1099.13C57.87 1099.13 57.99 1099.03 58.12 1099.03C58.16 1099.03 58.21 1099.03 58.26 1099.06C62.09 1100.57 65.52 1103.07 68.18 1106.27C68.32 1106.43 68.26 1106.6 68.23 1106.66C68.21 1106.71 68.12 1106.88 67.9 1106.88C65.54 1106.91 63.19 1106.64 60.91 1106.1C60.81 1106.07 60.73 1106.01 60.68 1105.93C59.46 1103.92 58.48 1101.76 57.77 1099.51C57.71 1099.31 57.82 1099.18 57.88 1099.13L57.87 1099.13ZM43.87 1097.89C47.31 1097.15 50.94 1097.15 54.39 1097.89C54.53 1097.92 54.64 1098.02 54.67 1098.16C55.41 1101.25 56.61 1104.19 58.22 1106.93C58.29 1107.06 58.28 1107.22 58.2 1107.35L55.32 1111.31C55.23 1111.43 55.09 1111.5 54.95 1111.47C51.14 1110.69 47.11 1110.69 43.3 1111.47C43.17 1111.5 43.02 1111.43 42.94 1111.31L40.06 1107.35C39.97 1107.23 39.96 1107.06 40.04 1106.93C41.65 1104.19 42.85 1101.25 43.59 1098.16C43.62 1098.02 43.73 1097.92 43.87 1097.89ZM30.08 1106.27C32.74 1103.06 36.16 1100.56 39.99 1099.06C40.05 1099.04 40.1 1099.03 40.14 1099.03C40.28 1099.03 40.36 1099.1 40.39 1099.13C40.44 1099.18 40.56 1099.31 40.49 1099.51C39.79 1101.77 38.81 1103.92 37.59 1105.93C37.54 1106.01 37.46 1106.07 37.36 1106.1C35.08 1106.64 32.73 1106.91 30.37 1106.88C30.15 1106.88 30.05 1106.71 30.03 1106.66C30 1106.6 29.95 1106.43 30.09 1106.27L30.08 1106.27ZM27.75 1109.57C27.82 1109.47 27.94 1109.4 28.08 1109.4C28.08 1109.4 28.1 1109.4 28.11 1109.4C31.28 1109.65 34.47 1109.43 37.56 1108.74C37.71 1108.71 37.85 1108.76 37.93 1108.89L40.84 1112.88C40.92 1113 40.93 1113.15 40.87 1113.27C39.02 1116.72 37.81 1120.43 37.28 1124.31C37.26 1124.46 37.16 1124.56 37.03 1124.62L32.33 1126.16C32.2 1126.19 32.04 1126.16 31.95 1126.05C29.85 1123.67 27.41 1121.63 24.69 1119.96C24.58 1119.89 24.51 1119.75 24.52 1119.61C24.87 1116.04 25.96 1112.67 27.76 1109.59L27.75 1109.57ZM28.89 1135.23C28.83 1135.43 28.65 1135.47 28.58 1135.48C28.5 1135.48 28.34 1135.48 28.22 1135.31C26.01 1131.82 24.69 1127.79 24.43 1123.65C24.42 1123.43 24.56 1123.32 24.62 1123.3C24.68 1123.27 24.85 1123.19 25.02 1123.31C26.94 1124.68 28.69 1126.29 30.22 1128.06C30.28 1128.14 30.31 1128.24 30.3 1128.34C30.12 1130.68 29.64 1133 28.88 1135.24L28.89 1135.23ZM39.17 1144.73C35.93 1143.31 33.06 1141.22 30.67 1138.53C30.58 1138.43 30.54 1138.27 30.6 1138.15C31.81 1135.21 32.58 1132.12 32.89 1128.96C32.9 1128.81 33 1128.68 33.14 1128.64L37.78 1127.13C37.78 1127.13 37.85 1127.11 37.89 1127.11C38 1127.11 38.09 1127.15 38.16 1127.24C40.77 1130.15 44.02 1132.53 47.59 1134.1C47.73 1134.16 47.81 1134.28 47.81 1134.43L47.81 1139.31C47.81 1139.46 47.73 1139.59 47.59 1139.64C44.68 1140.9 41.97 1142.6 39.55 1144.67C39.44 1144.77 39.29 1144.79 39.16 1144.72L39.17 1144.73ZM55.55 1145.76C55.54 1145.84 55.48 1146 55.27 1146.06C51.26 1147.07 47.01 1147.07 42.99 1146.06C42.79 1146 42.73 1145.84 42.72 1145.76C42.71 1145.68 42.69 1145.53 42.87 1145.39C44.76 1143.99 46.82 1142.81 49 1141.9C49.09 1141.86 49.19 1141.86 49.28 1141.9C51.44 1142.81 53.51 1143.99 55.41 1145.39C55.58 1145.52 55.57 1145.68 55.56 1145.76L55.55 1145.76ZM67.61 1138.54C65.22 1141.23 62.35 1143.31 59.11 1144.73C58.97 1144.8 58.82 1144.77 58.72 1144.68C56.29 1142.61 53.6 1140.91 50.67 1139.66C50.54 1139.59 50.46 1139.47 50.46 1139.31L50.46 1134.43C50.46 1134.29 50.54 1134.16 50.67 1134.11C54.24 1132.54 57.51 1130.16 60.1 1127.25C60.18 1127.16 60.27 1127.12 60.37 1127.12C60.42 1127.12 60.45 1127.12 60.49 1127.14L65.13 1128.65C65.27 1128.68 65.37 1128.81 65.38 1128.97C65.68 1132.13 66.45 1135.21 67.67 1138.16C67.72 1138.28 67.7 1138.43 67.6 1138.54L67.61 1138.54ZM70.04 1135.32C69.93 1135.5 69.75 1135.5 69.69 1135.49C69.62 1135.49 69.45 1135.43 69.38 1135.24C68.63 1133 68.15 1130.68 67.95 1128.34C67.95 1128.25 67.97 1128.14 68.04 1128.06C69.57 1126.29 71.31 1124.69 73.24 1123.31C73.31 1123.27 73.39 1123.25 73.45 1123.25C73.53 1123.25 73.59 1123.28 73.64 1123.3C73.7 1123.32 73.84 1123.43 73.82 1123.65C73.56 1127.79 72.25 1131.82 70.03 1135.31L70.04 1135.32Z" fill="#FFFFFF" fill-opacity="1.000000" fill-rule="nonzero"/>
		<path id="Vector" d="M48.98 1048.15C36.28 1048.15 23.59 1043.31 13.92 1033.65C-5.41 1014.32 -5.41 982.88 13.92 963.55C23.29 954.18 35.74 949.03 48.98 949.03C62.22 949.03 74.67 954.18 84.03 963.55C103.36 982.88 103.36 1014.32 84.03 1033.65C74.37 1043.31 61.68 1048.15 48.98 1048.15ZM16.52 1031.05C34.42 1048.93 63.53 1048.93 81.42 1031.05C99.31 1013.16 99.31 984.04 81.42 966.15C72.75 957.48 61.23 952.71 48.97 952.71C36.71 952.71 25.18 957.49 16.51 966.15C-1.38 984.04 -1.38 1013.16 16.51 1031.05L16.52 1031.05Z" fill="#9DADF2" fill-opacity="1.000000" fill-rule="nonzero"/>
		<path id="Vector" d="M48.32 1017.16C48.5 1017.58 48.92 1017.83 49.35 1017.83C49.5 1017.83 49.64 1017.8 49.79 1017.75C53.29 1016.28 56.47 1014.01 58.99 1011.18C59.4 1010.72 59.36 1010.02 58.9 1009.61C58.44 1009.2 57.73 1009.25 57.33 1009.7C55.03 1012.3 52.12 1014.37 48.93 1015.7C48.36 1015.94 48.09 1016.59 48.33 1017.16L48.32 1017.16Z" fill="#9DADF2" fill-opacity="1.000000" fill-rule="nonzero"/>
		<path id="Vector" d="M67.87 981.46L49.38 974.07C49.11 973.97 48.82 973.97 48.55 974.07L30.06 981.46C29.64 981.63 29.37 982.03 29.37 982.49L29.37 995.73C29.39 1007.95 37.11 1019 48.58 1023.2C48.71 1023.24 48.83 1023.27 48.97 1023.27C49.1 1023.27 49.23 1023.24 49.35 1023.2C60.82 1018.99 68.54 1007.95 68.57 995.73L68.57 982.49C68.57 982.03 68.29 981.63 67.87 981.46ZM66.34 995.73C66.32 1006.85 59.34 1016.98 48.98 1020.97C38.61 1016.98 31.62 1006.85 31.6 995.73L31.6 983.25L48.98 976.31L66.34 983.25L66.34 995.73Z" fill="#9DADF2" fill-opacity="1.000000" fill-rule="nonzero"/>
		<path id="Vector" d="M41.25 983.2C40.98 983.08 40.68 983.08 40.4 983.2L36 984.96C35.57 985.12 35.3 985.53 35.3 985.99L35.3 990.68C35.3 991.3 35.8 991.8 36.41 991.8C37.03 991.8 37.53 991.3 37.53 990.68L37.53 986.75L41.22 985.27C41.5 985.15 41.71 984.95 41.84 984.67C41.95 984.39 41.95 984.09 41.84 983.81C41.72 983.53 41.51 983.32 41.24 983.2L41.25 983.2Z" fill="#9DADF2" fill-opacity="1.000000" fill-rule="nonzero"/>
		<path id="Vector" d="M77.12 970.45C69.61 962.92 59.6 958.79 48.97 958.79C38.33 958.79 28.34 962.93 20.81 970.45C5.29 985.97 5.29 1011.23 20.81 1026.76C28.58 1034.53 38.77 1038.4 48.97 1038.4C59.17 1038.4 69.36 1034.52 77.12 1026.76C92.64 1011.24 92.64 985.98 77.12 970.45ZM71.61 995.73C71.65 1009.86 62.62 1022.21 49.16 1026.49C49.04 1026.53 48.9 1026.53 48.77 1026.49C35.31 1022.21 26.29 1009.86 26.32 995.73L26.32 980.11C26.32 979.85 26.47 979.61 26.72 979.5L48.73 970.71C48.8 970.68 48.88 970.67 48.97 970.67C49.05 970.67 49.13 970.68 49.21 970.71L71.21 979.51C71.46 979.61 71.61 979.85 71.61 980.12L71.61 995.74L71.61 995.73Z" fill="#9DADF2" fill-opacity="1.000000" fill-rule="nonzero"/>
		<path id="Vector" d="M49.39 925.84C22.07 925.84 -0.15 903.6 -0.15 876.29C-0.15 848.98 22.08 826.75 49.39 826.75C76.7 826.75 98.94 848.98 98.94 876.29C98.94 903.6 76.7 925.84 49.39 925.84ZM49.39 830.05C23.89 830.05 3.15 850.79 3.15 876.29C3.15 901.79 23.89 922.54 49.39 922.54C74.89 922.54 95.64 901.79 95.64 876.29C95.64 850.79 74.89 830.05 49.39 830.05Z" fill="#478BF9" fill-opacity="1.000000" fill-rule="nonzero"/>
		<path id="Vector" d="M66.37 856.28L81.71 840.94L84.73 843.96L69.39 859.3L66.37 856.28Z" fill="#478BF9" fill-opacity="1.000000" fill-rule="evenodd"/>
		<path id="Vector" d="M13.58 909.07L28.92 893.74L31.94 896.75L16.6 912.09L13.58 909.07Z" fill="#478BF9" fill-opacity="1.000000" fill-rule="evenodd"/>
		<path id="Vector" d="M66.84 896.77L69.86 893.75L85.19 909.09L82.18 912.11L66.84 896.77Z" fill="#478BF9" fill-opacity="1.000000" fill-rule="evenodd"/>
		<path id="Vector" d="M13.58 843.5L16.59 840.48L31.93 855.81L28.91 858.83L13.58 843.5Z" fill="#478BF9" fill-opacity="1.000000" fill-rule="evenodd"/>
		<path id="Vector" d="M61.48 877.62C62.48 876.62 62.48 875.01 61.48 874.02L59.35 871.91C58.35 870.91 56.74 870.91 55.75 871.91L54.61 873.05L53.28 871.73C52.29 870.73 50.67 870.73 49.68 871.73L48.54 872.89L47.22 871.56C46.22 870.56 44.6 870.56 43.61 871.56L36.59 878.58C36.54 878.63 36.54 878.72 36.59 878.78C37.53 879.72 39.06 879.72 40 878.78L44.53 874.25C45.02 873.76 45.81 873.76 46.3 874.25L46.63 874.58C46.7 874.65 46.7 874.74 46.63 874.8L42.85 878.58C42.8 878.63 42.8 878.72 42.85 878.78C43.79 879.72 45.32 879.72 46.27 878.78L50.61 874.44C51.1 873.95 51.89 873.95 52.38 874.44L52.71 874.77C52.76 874.82 52.76 874.91 52.71 874.97L49.07 878.61C49.02 878.66 49.02 878.75 49.07 878.81C50.01 879.75 51.54 879.75 52.48 878.81L56.68 874.62C57.17 874.13 57.96 874.13 58.45 874.62L59.17 875.33C59.45 875.61 59.45 876.08 59.17 876.36L59.05 876.48C58.77 876.76 58.3 876.76 58.02 876.48L57.09 875.55C57.04 875.5 56.96 875.5 56.9 875.55L55.29 877.16C55.24 877.21 55.24 877.29 55.29 877.35L56.74 878.8C57.74 879.8 59.35 879.8 60.34 878.8L61.49 877.65L61.48 877.62Z" fill="#478BF9" fill-opacity="1.000000" fill-rule="nonzero"/>
		<path id="Vector" d="M49.39 838.3C28.41 838.3 11.4 855.31 11.4 876.29C11.4 897.28 28.41 914.28 49.39 914.28C70.38 914.28 87.38 897.28 87.38 876.29C87.38 855.31 70.38 838.3 49.39 838.3ZM50.94 850.03C57.04 850.38 62.58 852.82 66.87 856.63L61.38 862.11C58.52 859.69 54.91 858.12 50.94 857.78L50.94 850.03ZM47.85 850.03L47.85 857.78C43.89 858.11 40.27 859.69 37.41 862.11L31.93 856.63C36.22 852.82 41.75 850.38 47.85 850.03ZM29.74 858.82L35.23 864.3C32.8 867.16 31.23 870.77 30.9 874.74L23.14 874.74C23.5 868.64 25.93 863.1 29.74 858.82ZM23.14 877.83L30.9 877.83C31.22 881.8 32.8 885.41 35.23 888.27L29.74 893.76C25.93 889.47 23.5 883.93 23.14 877.83ZM47.85 902.54C41.75 902.19 36.22 899.75 31.93 895.94L37.41 890.46C40.27 892.88 43.89 894.45 47.85 894.79L47.85 902.54ZM33.43 876.28C33.43 867.46 40.58 860.31 49.39 860.31C58.21 860.31 65.36 867.46 65.36 876.28C65.36 885.1 58.21 892.25 49.39 892.25C40.58 892.25 33.43 885.1 33.43 876.28ZM50.94 902.54L50.94 894.79C54.91 894.46 58.52 892.88 61.38 890.46L66.87 895.94C62.58 899.75 57.04 902.19 50.94 902.54ZM69.05 893.76L63.57 888.27C65.99 885.41 67.57 881.8 67.9 877.83L75.65 877.83C75.3 883.93 72.86 889.47 69.05 893.76ZM67.9 874.74C67.58 870.77 65.99 867.16 63.57 864.3L69.05 858.82C72.86 863.1 75.3 868.64 75.65 874.74L67.9 874.74Z" fill="#478BF9" fill-opacity="1.000000" fill-rule="nonzero"/>
		<path id="Vector" d="M14.49 781.48C-5 761.99 -5 730.28 14.49 710.79C33.98 691.3 65.69 691.3 85.18 710.79C104.67 730.28 104.67 761.99 85.18 781.48C65.69 800.96 33.98 800.96 14.49 781.48ZM82.82 713.14C64.63 694.95 35.03 694.95 16.85 713.14C-1.34 731.33 -1.34 760.93 16.85 779.11C35.04 797.31 64.63 797.31 82.82 779.11C101.01 760.92 101.01 731.33 82.82 713.14Z" fill="#FFFFFF" fill-opacity="1.000000" fill-rule="nonzero"/>
		<path id="Vector" d="M83.36 735.53C83.18 735.35 83.04 735.13 82.96 734.88C81.23 729.77 78.41 725.23 74.57 721.39C70.73 717.56 66.19 714.73 61.07 713C60.4 712.76 59.94 712.13 59.94 711.42L59.94 699.27C59.94 698.76 60.18 698.27 60.58 697.96C60.99 697.64 61.51 697.53 62.01 697.65C70.76 699.84 78.77 704.38 85.16 710.79C91.56 717.19 96.1 725.2 98.29 733.95C98.42 734.44 98.3 734.97 97.99 735.38C97.67 735.78 97.19 736.02 96.68 736.02L84.53 736.02C84.07 736.02 83.66 735.83 83.35 735.52L83.36 735.53ZM76.92 719.03C80.84 722.95 83.79 727.54 85.71 732.68L94.5 732.68C92.29 725.33 88.28 718.61 82.81 713.14C77.35 707.68 70.63 703.66 63.28 701.46L63.28 710.25C68.42 712.17 73.01 715.12 76.93 719.04L76.92 719.03Z" fill="#FFFFFF" fill-opacity="1.000000" fill-rule="nonzero"/>
		<path id="Vector" d="M14.49 781.48C8.09 775.08 3.54 767.07 1.35 758.32C1.23 757.82 1.34 757.29 1.66 756.89C1.97 756.48 2.46 756.25 2.97 756.25L15.12 756.25C15.83 756.25 16.47 756.71 16.69 757.38C18.42 762.5 21.25 767.04 25.09 770.88C28.92 774.71 33.46 777.54 38.58 779.27C39.26 779.5 39.72 780.13 39.72 780.85L39.72 793C39.72 793.51 39.48 793.99 39.08 794.31C38.67 794.63 38.14 794.74 37.64 794.61C28.89 792.42 20.89 787.88 14.49 781.49L14.49 781.48ZM5.15 759.58C7.36 766.93 11.38 773.65 16.84 779.12C22.31 784.58 29.03 788.6 36.38 790.81L36.38 782.02C31.24 780.1 26.65 777.15 22.73 773.23C18.82 769.32 15.87 764.73 13.94 759.58L5.15 759.58L5.15 759.58Z" fill="#FFFFFF" fill-opacity="1.000000" fill-rule="nonzero"/>
		<path id="Vector" d="M60.44 794.17C60.12 793.86 59.95 793.43 59.95 792.99L59.95 780.84C59.95 780.12 60.4 779.49 61.08 779.26C66.2 777.53 70.74 774.71 74.57 770.87C78.41 767.03 81.23 762.49 82.97 757.37C83.2 756.7 83.83 756.24 84.55 756.24L96.7 756.24C97.21 756.24 97.69 756.48 98.01 756.88C98.33 757.28 98.43 757.81 98.31 758.31C96.12 767.06 91.58 775.06 85.18 781.47C78.78 787.87 70.77 792.41 62.02 794.6C61.52 794.72 61 794.61 60.59 794.3C60.54 794.25 60.49 794.21 60.44 794.16L60.44 794.17ZM63.28 782.02L63.28 790.8C70.64 788.59 77.36 784.58 82.82 779.11C88.29 773.65 92.3 766.93 94.51 759.57L85.72 759.57C83.8 764.72 80.85 769.3 76.93 773.22C73.02 777.14 68.43 780.1 63.28 782.02Z" fill="#FFFFFF" fill-opacity="1.000000" fill-rule="nonzero"/>
		<path id="Vector" d="M1.79 735.53C1.74 735.48 1.69 735.43 1.66 735.38C1.34 734.97 1.23 734.44 1.35 733.95C3.54 725.2 8.08 717.19 14.49 710.79C20.89 704.39 28.9 699.84 37.64 697.65C38.14 697.53 38.67 697.64 39.07 697.96C39.47 698.27 39.71 698.76 39.71 699.27L39.71 711.42C39.71 712.13 39.26 712.77 38.58 713C33.46 714.73 28.92 717.55 25.08 721.39C21.25 725.22 18.43 729.77 16.69 734.88C16.46 735.56 15.83 736.02 15.11 736.02L2.96 736.02C2.52 736.02 2.09 735.84 1.78 735.53L1.79 735.53ZM36.38 701.46C29.02 703.67 22.3 707.68 16.84 713.15C11.37 718.61 7.36 725.33 5.15 732.69L13.94 732.69C15.86 727.54 18.81 722.96 22.73 719.04C26.64 715.12 31.23 712.17 36.38 710.25L36.38 701.46Z" fill="#FFFFFF" fill-opacity="1.000000" fill-rule="nonzero"/>
		<path id="Vector" d="M76.93 719.03C61.99 704.09 37.67 704.09 22.73 719.03C7.79 733.98 7.79 758.29 22.73 773.23C37.67 788.17 61.98 788.17 76.93 773.23C91.87 758.28 91.87 733.97 76.93 719.03Z" fill="#FFFFFF" fill-opacity="1.000000" fill-rule="nonzero"/>
		<path id="Vector" d="M36.12 759.99L63.65 759.81C64.81 759.8 65.76 760.74 65.76 761.89L65.77 762.88C65.78 764.04 64.84 764.98 63.68 764.99L36.16 765.17C35 765.18 34.05 764.25 34.04 763.09L34.04 762.1C34.03 760.95 34.96 760 36.12 759.99Z" fill="#110A1D" fill-opacity="1.000000" fill-rule="evenodd"/>
		<path id="Vector" d="M39.87 743.19C39.57 743.19 39.27 743.13 39 742.99L36.85 741.96C35.91 741.5 35.49 740.4 35.88 739.43L36.86 736.98C37.17 736.23 37.88 735.74 38.69 735.74C39.03 735.74 39.37 735.82 39.68 736L42.24 737.46C42.72 737.73 43.06 738.2 43.19 738.74C43.31 739.28 43.2 739.85 42.89 740.3L41.48 742.33C41.12 742.87 40.51 743.19 39.87 743.19L39.87 743.19Z" fill="#110A1D" fill-opacity="1.000000" fill-rule="nonzero"/>
		<path id="Vector" d="M59.69 743.06C59.04 743.06 58.43 742.75 58.06 742.23L56.67 740.27C56.35 739.82 56.24 739.25 56.35 738.71C56.46 738.17 56.81 737.69 57.28 737.41L59.92 735.87C60.22 735.69 60.56 735.6 60.91 735.59C61.72 735.59 62.44 736.06 62.75 736.81L63.75 739.19C64.15 740.15 63.74 741.26 62.81 741.73L60.56 742.85C60.29 742.98 59.99 743.06 59.69 743.06L59.69 743.06Z" fill="#110A1D" fill-opacity="1.000000" fill-rule="nonzero"/>
		<path id="Vector" d="M37.71 758.15C36.5 758.16 35.42 757.4 35 756.26L30.41 743.62C30.12 743.77 29.8 743.88 29.49 743.96C29.11 744.05 28.73 744.1 28.35 744.1C28.13 744.1 27.91 744.09 27.69 744.06C25.3 743.76 23.49 741.7 23.47 739.29C23.45 736.61 25.61 734.42 28.29 734.41C30.96 734.39 33.15 736.55 33.16 739.22C33.16 739.84 33.06 740.43 32.84 740.98C32.72 741.29 32.58 741.58 32.41 741.85L41.14 746.08L47.82 736.4C47.54 736.28 47.27 736.13 47.02 735.95C46.54 735.63 46.11 735.22 45.77 734.74C45.19 733.93 44.88 732.96 44.88 731.97C44.86 729.3 47.02 727.11 49.69 727.09C49.81 727.09 49.93 727.09 50.05 727.1C52.45 727.26 54.38 729.18 54.55 731.57C54.64 732.7 54.34 733.79 53.69 734.71C53.35 735.2 52.93 735.61 52.46 735.94C52.2 736.11 51.93 736.26 51.65 736.38L58.46 745.96L67.05 741.66C66.89 741.35 66.76 741.03 66.66 740.69C66.55 740.29 66.49 739.86 66.49 739.43C66.49 739.24 66.5 739.04 66.52 738.85C66.79 736.41 68.85 734.57 71.3 734.55C73.97 734.53 76.16 736.69 76.18 739.37C76.2 741.92 74.22 744.06 71.67 744.24L71.37 744.24C70.87 744.24 70.39 744.18 69.92 744.04C69.62 743.94 69.32 743.82 69.05 743.67L64.74 756.07C64.34 757.21 63.26 757.98 62.05 757.99L37.71 758.15L37.71 758.15Z" fill="#110A1D" fill-opacity="1.000000" fill-rule="nonzero"/>
		<path id="Vector" d="M48.98 675C36.28 675 23.59 670.17 13.92 660.5C-5.41 641.17 -5.41 609.72 13.92 590.39C23.29 581.03 35.74 575.87 48.98 575.87C62.22 575.87 74.67 581.03 84.03 590.39C103.36 609.72 103.36 641.17 84.03 660.5C74.37 670.16 61.68 675 48.98 675ZM16.52 657.89C34.42 675.79 63.53 675.79 81.42 657.89C99.31 640 99.31 610.89 81.42 593C72.75 584.33 61.23 579.56 48.97 579.56C36.71 579.56 25.18 584.34 16.51 593C-1.38 610.89 -1.38 640 16.51 657.89L16.52 657.89Z" fill="#9DADF2" fill-opacity="1.000000" fill-rule="nonzero"/>
		<path id="Vector" d="M48.32 643.99C48.5 644.42 48.92 644.66 49.35 644.66C49.5 644.66 49.64 644.63 49.79 644.58C53.29 643.11 56.47 640.84 58.99 638.01C59.4 637.56 59.36 636.85 58.9 636.44C58.44 636.04 57.73 636.08 57.33 636.53C55.03 639.13 52.12 641.2 48.93 642.53C48.36 642.77 48.09 643.43 48.33 643.99L48.32 643.99Z" fill="#9DADF2" fill-opacity="1.000000" fill-rule="nonzero"/>
		<path id="Vector" d="M67.87 608.31L49.38 600.92C49.11 600.81 48.82 600.81 48.55 600.92L30.06 608.31C29.64 608.47 29.37 608.88 29.37 609.34L29.37 622.58C29.39 634.8 37.11 645.84 48.58 650.05C48.71 650.09 48.83 650.11 48.97 650.11C49.1 650.11 49.23 650.09 49.35 650.05C60.82 645.83 68.54 634.8 68.57 622.58L68.57 609.34C68.57 608.88 68.29 608.47 67.87 608.31ZM66.34 622.58C66.32 633.69 59.34 643.82 48.98 647.81C38.61 643.82 31.62 633.69 31.6 622.58L31.6 610.1L48.98 603.15L66.34 610.1L66.34 622.58Z" fill="#9DADF2" fill-opacity="1.000000" fill-rule="nonzero"/>
		<path id="Vector" d="M41.25 610.05C40.98 609.93 40.68 609.93 40.4 610.05L36 611.8C35.57 611.97 35.3 612.38 35.3 612.84L35.3 617.53C35.3 618.14 35.8 618.64 36.41 618.64C37.03 618.64 37.53 618.14 37.53 617.53L37.53 613.59L41.22 612.12C41.5 612 41.71 611.79 41.84 611.51C41.95 611.24 41.95 610.94 41.84 610.66C41.72 610.38 41.51 610.17 41.24 610.05L41.25 610.05Z" fill="#9DADF2" fill-opacity="1.000000" fill-rule="nonzero"/>
		<path id="Vector" d="M77.12 597.3C69.61 589.77 59.6 585.64 48.97 585.64C38.33 585.64 28.34 589.78 20.81 597.3C5.29 612.81 5.29 638.08 20.81 653.61C28.58 661.37 38.77 665.24 48.97 665.24C59.17 665.24 69.36 661.36 77.12 653.61C92.64 638.09 92.64 612.82 77.12 597.3ZM71.61 622.58C71.65 636.7 62.62 649.06 49.16 653.34C49.04 653.38 48.9 653.38 48.77 653.34C35.31 649.06 26.29 636.7 26.32 622.58L26.32 606.95C26.32 606.69 26.47 606.45 26.72 606.35L48.73 597.56C48.8 597.52 48.88 597.51 48.97 597.51C49.05 597.51 49.13 597.52 49.21 597.56L71.21 606.36C71.46 606.45 71.61 606.69 71.61 606.96L71.61 622.59L71.61 622.58Z" fill="#9DADF2" fill-opacity="1.000000" fill-rule="nonzero"/>
		<path id="Vector" d="M49.12 548.38C21.8 548.38 -0.42 526.15 -0.42 498.84C-0.42 471.53 21.81 449.29 49.12 449.29C76.43 449.29 98.67 471.53 98.67 498.84C98.67 526.15 76.43 548.38 49.12 548.38ZM49.12 452.59C23.62 452.59 2.88 473.34 2.88 498.84C2.88 524.34 23.62 545.09 49.12 545.09C74.62 545.09 95.37 524.34 95.37 498.84C95.37 473.34 74.62 452.59 49.12 452.59Z" fill="#FFFFFF" fill-opacity="1.000000" fill-rule="nonzero"/>
		<path id="Vector" d="M65.19 467.89C64.94 467.89 64.69 467.84 64.46 467.73C59.67 465.36 54.5 464.15 49.12 464.15C43.74 464.15 38.58 465.36 33.78 467.73C33.14 468.04 32.38 467.92 31.89 467.42L23.37 458.9C23.01 458.54 22.84 458.04 22.9 457.53C22.96 457.02 23.26 456.57 23.69 456.31C31.36 451.71 40.16 449.28 49.13 449.28C58.1 449.28 66.9 451.72 74.57 456.31C75.01 456.57 75.3 457.02 75.36 457.53C75.42 458.04 75.25 458.54 74.89 458.9L66.38 467.42C66.06 467.73 65.64 467.89 65.2 467.89L65.19 467.89ZM49.12 460.85C54.61 460.85 59.89 461.99 64.85 464.25L71.01 458.09C64.31 454.48 56.78 452.58 49.12 452.58C41.46 452.58 33.94 454.48 27.23 458.09L33.39 464.25C38.35 461.99 43.64 460.85 49.12 460.85Z" fill="#FFFFFF" fill-opacity="1.000000" fill-rule="nonzero"/>
		<path id="Vector" d="M49.12 548.38C40.15 548.38 31.35 545.95 23.68 541.36C23.24 541.1 22.95 540.65 22.89 540.14C22.83 539.63 23 539.13 23.36 538.77L31.87 530.25C32.37 529.75 33.14 529.63 33.77 529.94C38.57 532.31 43.73 533.52 49.11 533.52C54.49 533.52 59.65 532.31 64.45 529.94C65.09 529.63 65.85 529.75 66.35 530.25L74.86 538.77C75.22 539.13 75.39 539.63 75.33 540.14C75.27 540.65 74.98 541.1 74.54 541.36C66.87 545.96 58.07 548.38 49.1 548.38L49.12 548.38ZM27.23 539.58C33.93 543.19 41.46 545.09 49.12 545.09C56.78 545.09 64.31 543.19 71.01 539.58L64.85 533.42C59.89 535.68 54.61 536.82 49.12 536.82C43.63 536.82 38.35 535.68 33.39 533.42L27.23 539.58Z" fill="#FFFFFF" fill-opacity="1.000000" fill-rule="nonzero"/>
		<path id="Vector" d="M90.23 525.07C89.79 525.07 89.37 524.9 89.06 524.59L80.55 516.08C80.05 515.58 79.92 514.81 80.24 514.18C82.61 509.38 83.82 504.22 83.82 498.84C83.82 493.46 82.61 488.3 80.24 483.5C79.92 482.86 80.05 482.09 80.55 481.6L89.06 473.09C89.43 472.72 89.93 472.56 90.44 472.62C90.95 472.68 91.39 472.97 91.65 473.41C96.25 481.08 98.68 489.88 98.68 498.85C98.68 507.82 96.25 516.62 91.65 524.29C91.39 524.73 90.95 525.02 90.44 525.08C90.36 525.08 90.3 525.08 90.23 525.08L90.23 525.07ZM83.7 514.56L89.86 520.72C93.48 514.02 95.37 506.49 95.37 498.83C95.37 491.17 93.48 483.64 89.86 476.94L83.7 483.1C85.96 488.06 87.11 493.34 87.11 498.83C87.11 504.31 85.96 509.6 83.7 514.56Z" fill="#FFFFFF" fill-opacity="1.000000" fill-rule="nonzero"/>
		<path id="Vector" d="M8.02 525.07C7.95 525.07 7.88 525.07 7.82 525.06C7.31 525 6.86 524.71 6.6 524.27C2 516.6 -0.42 507.8 -0.42 498.83C-0.42 489.86 2 481.06 6.6 473.39C6.86 472.95 7.31 472.66 7.82 472.6C8.33 472.54 8.83 472.71 9.19 473.07L17.71 481.58C18.21 482.08 18.33 482.85 18.02 483.48C15.65 488.28 14.44 493.44 14.44 498.82C14.44 504.2 15.65 509.36 18.02 514.16C18.33 514.8 18.21 515.57 17.71 516.06L9.19 524.57C8.88 524.88 8.47 525.06 8.03 525.06L8.02 525.07ZM8.38 476.94C4.77 483.64 2.88 491.17 2.88 498.83C2.88 506.49 4.77 514.02 8.38 520.72L14.54 514.56C12.29 509.6 11.14 504.31 11.14 498.83C11.14 493.34 12.29 488.06 14.54 483.1L8.38 476.94Z" fill="#FFFFFF" fill-opacity="1.000000" fill-rule="nonzero"/>
		<path id="Vector" d="M49.12 460.85C28.18 460.85 11.13 477.89 11.13 498.84C11.13 519.79 28.17 536.83 49.12 536.83C70.08 536.83 87.11 519.79 87.11 498.84C87.11 477.89 70.08 460.85 49.12 460.85ZM70.5 486.36C72.3 489.44 73.4 492.8 73.75 496.37C73.76 496.52 73.7 496.65 73.57 496.73C70.86 498.39 68.42 500.43 66.32 502.82C66.22 502.93 66.07 502.97 65.93 502.92L61.24 501.39C61.1 501.35 61.01 501.23 60.99 501.09C60.46 497.21 59.25 493.49 57.4 490.03C57.34 489.91 57.35 489.76 57.43 489.65L60.33 485.65C60.41 485.56 60.52 485.5 60.64 485.5C60.67 485.5 60.69 485.5 60.72 485.5C63.82 486.18 67.01 486.41 70.17 486.15C70.32 486.14 70.45 486.21 70.52 486.34L70.5 486.36ZM58.43 501.74C58.44 501.85 58.41 501.95 58.35 502.02C55.88 504.87 52.74 507.15 49.27 508.6C49.18 508.64 49.08 508.64 48.99 508.6C45.52 507.14 42.38 504.86 39.91 502.02C39.85 501.95 39.82 501.85 39.83 501.74C40.31 497.98 41.48 494.37 43.3 491.04C43.36 490.95 43.44 490.89 43.54 490.87C45.38 490.48 47.25 490.28 49.13 490.28C51.02 490.28 52.89 490.48 54.72 490.87C54.83 490.89 54.91 490.95 54.96 491.04C56.78 494.37 57.95 497.98 58.44 501.74L58.43 501.74ZM57.87 475.91C57.87 475.91 57.99 475.81 58.12 475.81C58.16 475.81 58.21 475.81 58.26 475.84C62.09 477.36 65.52 479.85 68.18 483.05C68.32 483.21 68.26 483.37 68.23 483.43C68.21 483.49 68.12 483.65 67.9 483.65C65.54 483.68 63.19 483.41 60.91 482.87C60.81 482.85 60.73 482.79 60.68 482.71C59.46 480.7 58.48 478.53 57.77 476.28C57.71 476.09 57.82 475.95 57.88 475.91L57.87 475.91ZM43.87 474.66C47.31 473.92 50.94 473.92 54.39 474.66C54.53 474.69 54.64 474.8 54.67 474.93C55.41 478.02 56.61 480.98 58.22 483.72C58.29 483.84 58.28 484 58.2 484.12L55.32 488.1C55.23 488.21 55.09 488.28 54.95 488.24C51.14 487.47 47.11 487.47 43.3 488.24C43.17 488.28 43.02 488.21 42.94 488.1L40.06 484.12C39.97 484.01 39.96 483.84 40.04 483.72C41.65 480.98 42.85 478.02 43.59 474.93C43.62 474.8 43.73 474.69 43.87 474.66ZM30.08 483.05C32.74 479.84 36.16 477.35 39.99 475.84C40.05 475.82 40.1 475.81 40.14 475.81C40.28 475.81 40.36 475.88 40.39 475.91C40.44 475.96 40.56 476.09 40.49 476.28C39.79 478.54 38.81 480.7 37.59 482.71C37.54 482.79 37.46 482.85 37.36 482.87C35.08 483.41 32.73 483.68 30.37 483.65C30.15 483.65 30.05 483.49 30.03 483.43C30 483.37 29.95 483.21 30.09 483.05L30.08 483.05ZM27.75 486.36C27.82 486.25 27.94 486.17 28.08 486.17C28.08 486.17 28.1 486.17 28.11 486.17C31.28 486.42 34.47 486.2 37.56 485.52C37.71 485.49 37.85 485.54 37.93 485.66L40.84 489.66C40.92 489.77 40.93 489.93 40.87 490.04C39.02 493.5 37.81 497.22 37.28 501.1C37.26 501.23 37.16 501.35 37.03 501.4L32.33 502.93C32.2 502.97 32.04 502.93 31.95 502.83C29.85 500.44 27.41 498.4 24.69 496.74C24.58 496.66 24.51 496.53 24.52 496.38C24.87 492.81 25.96 489.44 27.76 486.37L27.75 486.36ZM28.89 512.01C28.83 512.2 28.65 512.25 28.58 512.26C28.5 512.26 28.34 512.26 28.22 512.09C26.01 508.6 24.69 504.56 24.43 500.42C24.42 500.21 24.56 500.11 24.62 500.08C24.68 500.05 24.85 499.97 25.02 500.1C26.94 501.46 28.69 503.07 30.22 504.85C30.28 504.92 30.31 505.01 30.3 505.12C30.12 507.46 29.64 509.78 28.88 512.02L28.89 512.01ZM39.17 521.51C35.93 520.08 33.06 517.99 30.67 515.31C30.58 515.2 30.54 515.05 30.6 514.92C31.81 511.99 32.58 508.89 32.89 505.73C32.9 505.58 33 505.46 33.14 505.42L37.78 503.91C37.78 503.91 37.85 503.89 37.89 503.89C38 503.89 38.09 503.93 38.16 504.01C40.77 506.93 44.02 509.3 47.59 510.87C47.73 510.93 47.81 511.06 47.81 511.21L47.81 516.09C47.81 516.23 47.73 516.37 47.59 516.42C44.68 517.68 41.97 519.38 39.55 521.45C39.44 521.54 39.29 521.56 39.16 521.5L39.17 521.51ZM55.55 522.54C55.54 522.61 55.48 522.78 55.27 522.83C51.26 523.85 47.01 523.85 42.99 522.83C42.79 522.78 42.73 522.61 42.72 522.54C42.71 522.47 42.69 522.3 42.87 522.17C44.76 520.76 46.82 519.58 49 518.68C49.09 518.64 49.19 518.64 49.28 518.68C51.44 519.58 53.51 520.76 55.41 522.17C55.58 522.29 55.57 522.47 55.56 522.54L55.55 522.54ZM67.61 515.32C65.22 518 62.35 520.08 59.11 521.51C58.97 521.57 58.82 521.54 58.72 521.46C56.29 519.39 53.6 517.69 50.67 516.43C50.54 516.37 50.46 516.24 50.46 516.1L50.46 511.22C50.46 511.07 50.54 510.93 50.67 510.88C54.24 509.31 57.51 506.94 60.1 504.02C60.18 503.94 60.27 503.9 60.37 503.9C60.42 503.9 60.45 503.9 60.49 503.92L65.13 505.43C65.27 505.47 65.37 505.6 65.38 505.74C65.68 508.9 66.45 511.99 67.67 514.93C67.72 515.06 67.7 515.21 67.6 515.32L67.61 515.32ZM70.04 512.1C69.93 512.28 69.75 512.28 69.69 512.27C69.62 512.27 69.45 512.21 69.38 512.02C68.63 509.78 68.15 507.46 67.95 505.12C67.95 505.02 67.97 504.92 68.04 504.85C69.57 503.07 71.31 501.47 73.24 500.1C73.31 500.05 73.39 500.03 73.45 500.03C73.53 500.03 73.59 500.06 73.64 500.08C73.7 500.11 73.84 500.21 73.82 500.42C73.56 504.56 72.25 508.6 70.03 512.09L70.04 512.1Z" fill="#FFFFFF" fill-opacity="1.000000" fill-rule="nonzero"/>
		<path id="Vector" d="M48.98 424.93C36.28 424.93 23.59 420.1 13.92 410.43C-5.41 391.1 -5.41 359.66 13.92 340.33C23.29 330.96 35.74 325.81 48.98 325.81C62.22 325.81 74.67 330.96 84.03 340.33C103.36 359.66 103.36 391.1 84.03 410.43C74.37 420.09 61.68 424.93 48.98 424.93ZM16.52 407.83C34.42 425.72 63.53 425.72 81.42 407.83C99.31 389.93 99.31 360.82 81.42 342.93C72.75 334.26 61.23 329.49 48.97 329.49C36.71 329.49 25.18 334.27 16.51 342.93C-1.38 360.82 -1.38 389.93 16.51 407.83L16.52 407.83Z" fill="#9DADF2" fill-opacity="1.000000" fill-rule="nonzero"/>
		<path id="Vector" d="M48.32 393.93C48.5 394.36 48.92 394.61 49.35 394.61C49.5 394.61 49.64 394.58 49.79 394.52C53.29 393.06 56.47 390.79 58.99 387.96C59.4 387.5 59.36 386.79 58.9 386.38C58.44 385.98 57.73 386.02 57.33 386.48C55.03 389.07 52.12 391.14 48.93 392.47C48.36 392.71 48.09 393.37 48.33 393.93L48.32 393.93Z" fill="#9DADF2" fill-opacity="1.000000" fill-rule="nonzero"/>
		<path id="Vector" d="M67.87 358.24L49.38 350.85C49.11 350.75 48.82 350.75 48.55 350.85L30.06 358.24C29.64 358.41 29.37 358.81 29.37 359.27L29.37 372.51C29.39 384.73 37.11 395.77 48.58 399.98C48.71 400.02 48.83 400.04 48.97 400.04C49.1 400.04 49.23 400.02 49.35 399.98C60.82 395.76 68.54 384.73 68.57 372.51L68.57 359.27C68.57 358.81 68.29 358.41 67.87 358.24ZM66.34 372.51C66.32 383.63 59.34 393.75 48.98 397.74C38.61 393.75 31.62 383.63 31.6 372.51L31.6 360.03L48.98 353.09L66.34 360.03L66.34 372.51Z" fill="#9DADF2" fill-opacity="1.000000" fill-rule="nonzero"/>
		<path id="Vector" d="M41.25 359.98C40.98 359.86 40.68 359.86 40.4 359.98L36 361.74C35.57 361.9 35.3 362.31 35.3 362.77L35.3 367.46C35.3 368.08 35.8 368.58 36.41 368.58C37.03 368.58 37.53 368.08 37.53 367.46L37.53 363.53L41.22 362.05C41.5 361.93 41.71 361.73 41.84 361.45C41.95 361.17 41.95 360.87 41.84 360.59C41.72 360.31 41.51 360.1 41.24 359.98L41.25 359.98Z" fill="#9DADF2" fill-opacity="1.000000" fill-rule="nonzero"/>
		<path id="Vector" d="M77.12 347.23C69.61 339.7 59.6 335.57 48.97 335.57C38.33 335.57 28.34 339.71 20.81 347.23C5.29 362.75 5.29 388.01 20.81 403.54C28.58 411.3 38.77 415.18 48.97 415.18C59.17 415.18 69.36 411.29 77.12 403.54C92.64 388.02 92.64 362.76 77.12 347.23ZM71.61 372.51C71.65 386.63 62.62 398.99 49.16 403.27C49.04 403.31 48.9 403.31 48.77 403.27C35.31 398.99 26.29 386.63 26.32 372.51L26.32 356.89C26.32 356.63 26.47 356.39 26.72 356.28L48.73 347.49C48.8 347.46 48.88 347.45 48.97 347.45C49.05 347.45 49.13 347.46 49.21 347.49L71.21 356.29C71.46 356.39 71.61 356.63 71.61 356.9L71.61 372.52L71.61 372.51Z" fill="#9DADF2" fill-opacity="1.000000" fill-rule="nonzero"/>
		<path id="Vector" d="M49.39 302.62C22.07 302.62 -0.15 280.38 -0.15 253.07C-0.15 225.76 22.08 203.53 49.39 203.53C76.7 203.53 98.94 225.76 98.94 253.07C98.94 280.38 76.7 302.62 49.39 302.62ZM49.39 206.83C23.89 206.83 3.15 227.57 3.15 253.07C3.15 278.57 23.89 299.32 49.39 299.32C74.89 299.32 95.64 278.57 95.64 253.07C95.64 227.57 74.89 206.83 49.39 206.83Z" fill="#478BF9" fill-opacity="1.000000" fill-rule="nonzero"/>
		<path id="Vector" d="M66.37 233.06L81.71 217.72L84.73 220.74L69.39 236.08L66.37 233.06Z" fill="#478BF9" fill-opacity="1.000000" fill-rule="evenodd"/>
		<path id="Vector" d="M13.58 285.85L28.92 270.52L31.94 273.53L16.6 288.87L13.58 285.85Z" fill="#478BF9" fill-opacity="1.000000" fill-rule="evenodd"/>
		<path id="Vector" d="M66.84 273.55L69.86 270.53L85.19 285.87L82.18 288.89L66.84 273.55Z" fill="#478BF9" fill-opacity="1.000000" fill-rule="evenodd"/>
		<path id="Vector" d="M13.58 220.28L16.59 217.26L31.93 232.59L28.91 235.61L13.58 220.28Z" fill="#478BF9" fill-opacity="1.000000" fill-rule="evenodd"/>
		<path id="Vector" d="M61.48 254.4C62.48 253.4 62.48 251.79 61.48 250.8L59.35 248.69C58.35 247.69 56.74 247.69 55.75 248.69L54.61 249.83L53.28 248.51C52.29 247.51 50.67 247.51 49.68 248.51L48.54 249.67L47.22 248.34C46.22 247.34 44.6 247.34 43.61 248.34L36.59 255.36C36.54 255.41 36.54 255.5 36.59 255.56C37.53 256.5 39.06 256.5 40 255.56L44.53 251.03C45.02 250.54 45.81 250.54 46.3 251.03L46.63 251.36C46.7 251.43 46.7 251.52 46.63 251.58L42.85 255.36C42.8 255.41 42.8 255.5 42.85 255.56C43.79 256.5 45.32 256.5 46.27 255.56L50.61 251.22C51.1 250.73 51.89 250.73 52.38 251.22L52.71 251.55C52.76 251.6 52.76 251.69 52.71 251.75L49.07 255.39C49.02 255.44 49.02 255.53 49.07 255.59C50.01 256.53 51.54 256.53 52.48 255.59L56.68 251.4C57.17 250.91 57.96 250.91 58.45 251.4L59.17 252.11C59.45 252.39 59.45 252.86 59.17 253.14L59.05 253.26C58.77 253.54 58.3 253.54 58.02 253.26L57.09 252.33C57.04 252.28 56.96 252.28 56.9 252.33L55.29 253.94C55.24 253.99 55.24 254.07 55.29 254.13L56.74 255.58C57.74 256.58 59.35 256.58 60.34 255.58L61.49 254.43L61.48 254.4Z" fill="#478BF9" fill-opacity="1.000000" fill-rule="nonzero"/>
		<path id="Vector" d="M49.39 215.08C28.41 215.08 11.4 232.09 11.4 253.07C11.4 274.05 28.41 291.06 49.39 291.06C70.38 291.06 87.38 274.05 87.38 253.07C87.38 232.09 70.38 215.08 49.39 215.08ZM50.94 226.81C57.04 227.16 62.58 229.6 66.87 233.41L61.38 238.89C58.52 236.47 54.91 234.9 50.94 234.56L50.94 226.81ZM47.85 226.81L47.85 234.56C43.89 234.89 40.27 236.47 37.41 238.89L31.93 233.41C36.22 229.6 41.75 227.16 47.85 226.81ZM29.74 235.59L35.23 241.08C32.8 243.94 31.23 247.55 30.9 251.52L23.14 251.52C23.5 245.42 25.93 239.88 29.74 235.59ZM23.14 254.61L30.9 254.61C31.22 258.58 32.8 262.19 35.23 265.05L29.74 270.54C25.93 266.25 23.5 260.71 23.14 254.61ZM47.85 279.32C41.75 278.97 36.22 276.53 31.93 272.72L37.41 267.24C40.27 269.66 43.89 271.23 47.85 271.57L47.85 279.32ZM33.43 253.06C33.43 244.24 40.58 237.09 49.39 237.09C58.21 237.09 65.36 244.24 65.36 253.06C65.36 261.88 58.21 269.03 49.39 269.03C40.58 269.03 33.43 261.88 33.43 253.06ZM50.94 279.32L50.94 271.57C54.91 271.24 58.52 269.66 61.38 267.24L66.87 272.72C62.58 276.53 57.04 278.97 50.94 279.32ZM69.05 270.54L63.57 265.05C65.99 262.19 67.57 258.58 67.9 254.61L75.65 254.61C75.3 260.71 72.86 266.25 69.05 270.54ZM67.9 251.52C67.58 247.55 65.99 243.94 63.57 241.08L69.05 235.59C72.86 239.88 75.3 245.42 75.65 251.52L67.9 251.52Z" fill="#478BF9" fill-opacity="1.000000" fill-rule="nonzero"/>
		<path id="Vector" d="M14.48 158.25C-5.01 138.77 -5.01 107.06 14.48 87.57C33.97 68.08 65.68 68.08 85.17 87.57C104.66 107.06 104.66 138.77 85.17 158.25C65.68 177.74 33.97 177.74 14.48 158.25ZM82.82 89.92C64.62 71.73 35.03 71.73 16.84 89.92C-1.35 108.11 -1.35 137.71 16.84 155.89C35.03 174.09 64.63 174.09 82.82 155.89C101.01 137.7 101.01 108.11 82.82 89.92Z" fill="#FFFFFF" fill-opacity="1.000000" fill-rule="nonzero"/>
		<path id="Vector" d="M83.36 112.31C83.18 112.13 83.04 111.91 82.96 111.66C81.23 106.55 78.41 102.01 74.57 98.17C70.73 94.34 66.19 91.51 61.07 89.78C60.39 89.54 59.94 88.91 59.94 88.2L59.94 76.05C59.94 75.54 60.18 75.05 60.58 74.74C60.99 74.42 61.51 74.31 62.01 74.43C70.76 76.62 78.77 81.16 85.16 87.57C91.56 93.97 96.1 101.98 98.29 110.73C98.42 111.22 98.3 111.75 97.99 112.16C97.67 112.56 97.19 112.8 96.68 112.8L84.53 112.8C84.07 112.8 83.66 112.61 83.35 112.3L83.36 112.31ZM76.92 95.81C80.84 99.73 83.79 104.32 85.71 109.46L94.5 109.46C92.29 102.11 88.28 95.39 82.81 89.92C77.35 84.46 70.63 80.44 63.28 78.24L63.28 87.03C68.42 88.95 73.01 91.9 76.93 95.82L76.92 95.81Z" fill="#FFFFFF" fill-opacity="1.000000" fill-rule="nonzero"/>
		<path id="Vector" d="M14.48 158.25C8.08 151.86 3.54 143.85 1.35 135.1C1.22 134.6 1.34 134.07 1.65 133.67C1.97 133.26 2.45 133.03 2.96 133.03L15.11 133.03C15.83 133.03 16.46 133.49 16.69 134.16C18.42 139.28 21.25 143.82 25.08 147.66C28.92 151.49 33.46 154.32 38.58 156.05C39.26 156.28 39.71 156.91 39.71 157.63L39.71 169.78C39.71 170.29 39.47 170.77 39.07 171.09C38.66 171.41 38.14 171.52 37.64 171.39C28.89 169.2 20.89 164.66 14.48 158.26L14.48 158.25ZM5.15 136.36C7.36 143.71 11.37 150.43 16.84 155.9C22.3 161.36 29.02 165.38 36.38 167.59L36.38 158.8C31.23 156.88 26.64 153.93 22.73 150.01C18.81 146.1 15.86 141.51 13.94 136.36L5.15 136.36L5.15 136.36Z" fill="#FFFFFF" fill-opacity="1.000000" fill-rule="nonzero"/>
		<path id="Vector" d="M60.43 170.95C60.12 170.64 59.94 170.21 59.94 169.77L59.94 157.62C59.94 156.9 60.39 156.27 61.07 156.04C66.19 154.31 70.73 151.49 74.57 147.65C78.41 143.81 81.23 139.27 82.96 134.15C83.19 133.48 83.82 133.02 84.54 133.02L96.69 133.02C97.2 133.02 97.68 133.26 98 133.66C98.32 134.06 98.43 134.59 98.3 135.09C96.11 143.84 91.57 151.84 85.17 158.25C78.77 164.65 70.76 169.19 62.01 171.38C61.51 171.5 60.99 171.39 60.58 171.08C60.53 171.03 60.48 170.99 60.43 170.94L60.43 170.95ZM63.27 158.8L63.27 167.58C70.63 165.37 77.35 161.36 82.81 155.89C88.28 150.43 92.29 143.71 94.5 136.35L85.71 136.35C83.79 141.5 80.84 146.08 76.92 150C73.01 153.92 68.42 156.88 63.27 158.8Z" fill="#FFFFFF" fill-opacity="1.000000" fill-rule="nonzero"/>
		<path id="Vector" d="M1.78 112.31C1.74 112.26 1.69 112.21 1.65 112.16C1.33 111.75 1.23 111.22 1.35 110.73C3.54 101.98 8.08 93.97 14.48 87.57C20.89 81.17 28.89 76.62 37.64 74.43C38.14 74.31 38.66 74.42 39.07 74.74C39.47 75.05 39.71 75.54 39.71 76.05L39.71 88.2C39.71 88.91 39.25 89.55 38.57 89.78C33.46 91.51 28.92 94.33 25.08 98.17C21.25 102 18.42 106.55 16.69 111.66C16.46 112.34 15.82 112.8 15.11 112.8L2.96 112.8C2.51 112.8 2.09 112.62 1.78 112.31L1.78 112.31ZM36.38 78.24C29.02 80.45 22.3 84.46 16.83 89.93C11.37 95.39 7.36 102.11 5.15 109.47L13.93 109.47C15.85 104.32 18.81 99.74 22.72 95.82C26.64 91.9 31.23 88.95 36.38 87.03L36.38 78.24Z" fill="#FFFFFF" fill-opacity="1.000000" fill-rule="nonzero"/>
		<path id="Vector" d="M76.93 95.81C61.99 80.87 37.67 80.87 22.73 95.81C7.79 110.76 7.79 135.07 22.73 150.01C37.67 164.95 61.98 164.95 76.93 150.01C91.87 135.06 91.87 110.75 76.93 95.81Z" fill="#FFFFFF" fill-opacity="1.000000" fill-rule="nonzero"/>
		<path id="Vector" d="M36.12 136.77L63.65 136.59C64.8 136.58 65.75 137.51 65.76 138.67L65.77 139.66C65.77 140.82 64.84 141.76 63.68 141.77L36.15 141.95C34.99 141.96 34.05 141.03 34.04 139.87L34.03 138.88C34.02 137.72 34.96 136.78 36.12 136.77Z" fill="#110A1D" fill-opacity="1.000000" fill-rule="evenodd"/>
		<path id="Vector" d="M39.87 119.97C39.57 119.97 39.27 119.91 38.99 119.77L36.84 118.74C35.91 118.28 35.48 117.18 35.87 116.21L36.86 113.76C37.16 113.01 37.88 112.52 38.68 112.52C39.03 112.52 39.37 112.6 39.67 112.78L42.23 114.24C42.71 114.51 43.06 114.98 43.18 115.52C43.3 116.06 43.2 116.63 42.88 117.08L41.48 119.11C41.11 119.65 40.51 119.97 39.86 119.97L39.87 119.97Z" fill="#110A1D" fill-opacity="1.000000" fill-rule="nonzero"/>
		<path id="Vector" d="M59.69 119.84C59.04 119.84 58.43 119.53 58.06 119.01L56.67 117.05C56.35 116.6 56.24 116.03 56.35 115.49C56.46 114.95 56.81 114.47 57.28 114.19L59.92 112.64C60.22 112.47 60.56 112.37 60.91 112.37C61.72 112.37 62.44 112.84 62.75 113.59L63.75 115.97C64.15 116.93 63.73 118.04 62.81 118.51L60.56 119.63C60.29 119.76 59.99 119.84 59.69 119.84L59.69 119.84Z" fill="#110A1D" fill-opacity="1.000000" fill-rule="nonzero"/>
		<path id="Vector" d="M37.71 134.93C36.5 134.94 35.41 134.18 35 133.04L30.41 120.4C30.11 120.55 29.8 120.65 29.48 120.74C29.11 120.83 28.73 120.88 28.34 120.88C28.12 120.88 27.9 120.87 27.69 120.84C25.3 120.54 23.48 118.48 23.47 116.07C23.45 113.39 25.61 111.2 28.28 111.18C30.96 111.17 33.15 113.33 33.16 116C33.16 116.62 33.06 117.21 32.84 117.76C32.72 118.07 32.57 118.36 32.4 118.63L41.14 122.86L47.82 113.18C47.54 113.06 47.27 112.91 47.01 112.73C46.53 112.41 46.11 112 45.77 111.52C45.19 110.71 44.88 109.74 44.87 108.75C44.85 106.08 47.01 103.89 49.69 103.87C49.81 103.87 49.93 103.87 50.05 103.88C52.44 104.04 54.37 105.96 54.55 108.35C54.63 109.48 54.33 110.57 53.69 111.49C53.35 111.98 52.93 112.39 52.45 112.72C52.2 112.89 51.93 113.04 51.65 113.16L58.45 122.74L67.04 118.44C66.88 118.13 66.76 117.81 66.66 117.47C66.55 117.07 66.49 116.64 66.49 116.21C66.49 116.01 66.49 115.82 66.51 115.63C66.79 113.19 68.85 111.35 71.3 111.33C73.97 111.31 76.16 113.47 76.17 116.15C76.19 118.7 74.21 120.84 71.67 121.02L71.36 121.02C70.87 121.02 70.39 120.96 69.92 120.82C69.61 120.72 69.32 120.6 69.04 120.45L64.73 132.85C64.34 133.99 63.26 134.75 62.05 134.77L37.71 134.93L37.71 134.93Z" fill="#110A1D" fill-opacity="1.000000" fill-rule="nonzero"/>
		<path id="Vector" d="" fill="#9DADF2" fill-opacity="1.000000" fill-rule="nonzero"/>
		<path id="Vector" d="M99.41 2.04L99.41 121.63C99.41 122.62 98.6 123.41 97.63 123.41C96.65 123.41 95.85 122.61 95.85 121.63L95.85 2.04C95.85 1.05 96.65 0.26 97.63 0.26C98.6 0.26 99.41 1.06 99.41 2.04Z" fill="#FFFFFF" fill-opacity="1.000000" fill-rule="nonzero"/>
		<path id="Vector" d="" fill="#9DADF2" fill-opacity="1.000000" fill-rule="nonzero"/>
		<path id="Vector" d="M3.86 1.77L3.86 121.37C3.86 122.36 3.06 123.15 2.08 123.15C1.11 123.15 0.3 122.35 0.3 121.37L0.3 1.77C0.3 0.79 1.11 0 2.08 0C3.06 0 3.86 0.8 3.86 1.77Z" fill="#FFFFFF" fill-opacity="1.000000" fill-rule="nonzero"/>
	</g>
</svg>
